<?xml version="1.0" encoding="UTF-8" standalone="no"?>
<!DOCTYPE svg PUBLIC "-//W3C//DTD SVG 1.1//EN" "http://www.w3.org/Graphics/SVG/1.1/DTD/svg11.dtd">
<svg xmlns="http://www.w3.org/2000/svg" xmlns:xlink="http://www.w3.org/1999/xlink" version="1.1" width="228.86695pt" height="47.99427pt" viewBox="0 0 228.86695 47.99427">
<g enable-background="new">
<g>
<path d="M 195.086 47.617 C 195.086 47.617 195.066 46.535 195.043 46.121 C 195.023 45.703 194.969 45.039 194.922 44.621 C 194.879 44.207 194.789 43.543 194.719 43.129 C 194.652 42.715 194.527 42.051 194.438 41.637 C 194.348 41.227 194.184 40.566 194.07 40.152 C 193.961 39.742 193.762 39.086 193.629 38.676 C 193.492 38.27 193.262 37.617 193.102 37.211 C 192.945 36.805 192.68 36.156 192.5 35.754 C 192.32 35.352 192.02 34.707 191.82 34.309 C 191.617 33.91 191.281 33.273 191.059 32.875 C 190.836 32.48 190.465 31.852 190.223 31.461 C 189.98 31.07 189.57 30.445 189.309 30.059 C 189.043 29.672 188.605 29.059 188.32 28.676 C 188.035 28.297 187.563 27.688 187.258 27.313 C 186.949 26.938 186.445 26.34 186.121 25.969 C 185.793 25.602 185.258 25.012 184.91 24.648 C 184.566 24.285 183.996 23.707 183.633 23.352 C 183.266 22.992 182.664 22.426 182.281 22.078 C 181.898 21.727 181.266 21.172 180.863 20.828 C 180.461 20.484 179.801 19.941 179.379 19.605 C 178.957 19.273 178.27 18.742 177.832 18.414 C 177.391 18.086 176.672 17.57 176.215 17.25 C 175.762 16.93 175.016 16.426 174.539 16.117 C 174.066 15.809 173.293 15.316 172.805 15.016 C 172.313 14.715 171.516 14.238 171.008 13.949 C 170.504 13.656 169.68 13.195 169.156 12.914 C 168.637 12.633 167.785 12.188 167.25 11.914 C 166.711 11.641 165.84 11.211 165.289 10.949 C 164.738 10.688 163.844 10.273 163.277 10.023 C 162.711 9.77 161.793 9.375 161.215 9.133 C 160.637 8.895 159.699 8.516 159.109 8.285 C 158.516 8.055 157.559 7.691 156.957 7.473 C 156.352 7.254 155.375 6.91 154.758 6.703 C 154.145 6.496 153.148 6.172 152.523 5.977 C 151.898 5.777 150.883 5.473 150.25 5.289 C 149.613 5.102 148.582 4.816 147.938 4.645 C 147.293 4.469 146.246 4.203 145.594 4.043 C 144.938 3.883 143.879 3.633 143.219 3.484 C 142.555 3.336 141.484 3.109 140.813 2.973 C 140.141 2.836 139.059 2.629 138.379 2.504 C 137.703 2.383 136.609 2.191 135.926 2.082 C 135.242 1.973 134.137 1.805 133.449 1.707 C 132.758 1.609 131.648 1.461 130.953 1.375 C 130.258 1.289 129.137 1.164 128.438 1.09 C 127.738 1.02 126.613 .914 125.91 .855 C 125.207 .797 124.078 .711 123.371 .664 C 122.668 .617 121.531 .555 120.824 .523 C 120.117 .488 118.98 .445 118.27 .426 C 117.563 .406 116.422 .387 115.711 .379 C 115.004 .375 113.863 .375 113.152 .379 C 112.445 .387 111.305 .406 110.598 .426 C 109.887 .445 108.75 .488 108.043 .523 C 107.332 .555 106.199 .617 105.496 .664 C 104.789 .711 103.66 .797 102.957 .855 C 102.254 .914 101.129 1.02 100.43 1.09 C 99.73 1.164 98.609 1.289 97.914 1.375 C 97.219 1.461 96.109 1.609 95.418 1.707 C 94.73 1.805 93.625 1.973 92.941 2.082 C 92.258 2.191 91.164 2.383 90.488 2.504 C 89.809 2.629 88.727 2.836 88.055 2.973 C 87.383 3.109 86.313 3.336 85.648 3.484 C 84.988 3.633 83.93 3.883 83.273 4.043 C 82.621 4.203 81.574 4.473 80.93 4.645 C 80.285 4.816 79.254 5.102 78.617 5.289 C 77.984 5.473 76.969 5.777 76.344 5.977 C 75.719 6.172 74.723 6.496 74.109 6.703 C 73.492 6.91 72.516 7.254 71.91 7.473 C 71.309 7.691 70.352 8.055 69.758 8.285 C 69.168 8.516 68.23 8.895 67.652 9.133 C 67.074 9.375 66.156 9.77 65.59 10.023 C 65.023 10.273 64.129 10.688 63.578 10.949 C 63.027 11.211 62.152 11.641 61.617 11.914 C 61.082 12.188 60.23 12.633 59.711 12.914 C 59.188 13.195 58.363 13.656 57.859 13.949 C 57.352 14.238 56.555 14.715 56.063 15.016 C 55.574 15.316 54.801 15.809 54.328 16.117 C 53.852 16.426 53.105 16.93 52.652 17.25 C 52.195 17.57 51.477 18.086 51.035 18.414 C 50.598 18.742 49.906 19.273 49.488 19.605 C 49.066 19.941 48.406 20.484 48.004 20.828 C 47.602 21.172 46.969 21.727 46.586 22.078 C 46.199 22.426 45.602 22.992 45.234 23.352 C 44.871 23.707 44.301 24.285 43.957 24.648 C 43.609 25.012 43.074 25.602 42.746 25.969 C 42.422 26.34 41.918 26.938 41.609 27.313 C 41.305 27.688 40.832 28.297 40.547 28.676 C 40.262 29.059 39.824 29.672 39.559 30.059 C 39.297 30.445 38.887 31.07 38.645 31.461 C 38.402 31.852 38.031 32.48 37.809 32.875 C 37.586 33.273 37.25 33.91 37.047 34.309 C 36.848 34.707 36.547 35.352 36.367 35.754 C 36.188 36.156 35.918 36.805 35.762 37.211 C 35.605 37.617 35.375 38.27 35.238 38.676 C 35.105 39.086 34.906 39.742 34.797 40.152 C 34.684 40.566 34.52 41.227 34.43 41.637 C 34.34 42.051 34.215 42.715 34.148 43.129 C 34.078 43.543 33.988 44.207 33.945 44.621 C 33.898 45.039 33.844 45.703 33.82 46.121 C 33.801 46.535 33.781 47.617 33.781 47.617 L .375 47.617 C .828 47.176 2.371 45.656 2.844 45.207 C 3.316 44.758 4.09 44.031 4.582 43.574 C 5.074 43.121 5.883 42.387 6.395 41.93 C 6.906 41.473 7.742 40.734 8.273 40.273 C 8.805 39.813 9.672 39.074 10.223 38.613 C 10.77 38.152 11.668 37.414 12.234 36.953 C 12.801 36.492 13.727 35.754 14.309 35.293 C 14.895 34.832 15.844 34.098 16.445 33.641 C 17.043 33.188 18.02 32.457 18.633 32.004 C 19.25 31.551 20.246 30.828 20.875 30.379 C 21.508 29.93 22.527 29.215 23.168 28.773 C 23.809 28.332 24.852 27.629 25.504 27.191 C 26.16 26.758 27.219 26.066 27.883 25.637 C 28.547 25.211 29.621 24.531 30.297 24.113 C 30.969 23.695 32.059 23.031 32.742 22.625 C 33.422 22.215 34.523 21.566 35.215 21.168 C 35.902 20.77 37.016 20.141 37.711 19.754 C 38.406 19.367 39.523 18.758 40.223 18.383 C 40.922 18.008 42.047 17.414 42.75 17.055 C 43.453 16.691 44.582 16.121 45.285 15.773 C 45.988 15.422 47.121 14.875 47.824 14.539 C 48.527 14.203 49.656 13.68 50.359 13.355 C 51.063 13.035 52.188 12.531 52.887 12.227 C 53.586 11.922 54.707 11.441 55.402 11.148 C 56.098 10.859 57.207 10.402 57.898 10.129 C 58.59 9.852 59.691 9.422 60.371 9.16 C 61.055 8.898 62.145 8.492 62.816 8.246 C 63.492 8 64.566 7.621 65.23 7.391 C 65.895 7.16 66.953 6.805 67.605 6.59 C 68.258 6.375 69.293 6.043 69.934 5.844 C 70.574 5.645 71.59 5.34 72.219 5.156 C 72.844 4.969 73.836 4.688 74.445 4.52 C 75.059 4.352 76.023 4.09 76.617 3.938 C 77.215 3.781 78.152 3.547 78.73 3.406 C 79.305 3.266 80.215 3.055 80.773 2.93 C 81.332 2.801 82.211 2.613 82.746 2.5 C 83.285 2.387 84.129 2.219 84.648 2.117 C 85.164 2.02 85.977 1.867 86.469 1.781 C 86.965 1.695 87.738 1.563 88.211 1.488 C 88.68 1.414 89.418 1.301 89.867 1.234 C 90.316 1.172 91.016 1.078 91.438 1.023 C 91.859 .969 92.52 .891 92.918 .848 C 93.313 .801 93.934 .738 94.305 .703 C 94.676 .668 95.254 .617 95.598 .59 C 95.941 .559 96.477 .523 96.793 .504 C 97.113 .484 97.602 .457 97.895 .441 C 98.188 .43 98.633 .41 98.895 .402 C 99.16 .395 99.559 .383 99.797 .383 C 100.031 .379 100.594 .375 100.594 .375 L 128.27 .375 C 128.27 .375 128.836 .379 129.07 .383 C 129.309 .383 129.707 .395 129.973 .402 C 130.234 .41 130.68 .426 130.973 .441 C 131.266 .457 131.754 .484 132.07 .504 C 132.391 .523 132.922 .563 133.27 .59 C 133.613 .617 134.191 .668 134.563 .703 C 134.934 .738 135.551 .801 135.949 .848 C 136.348 .891 137.008 .969 137.43 1.023 C 137.852 1.078 138.551 1.172 139 1.234 C 139.449 1.301 140.184 1.414 140.656 1.488 C 141.129 1.563 141.902 1.695 142.398 1.781 C 142.891 1.867 143.703 2.016 144.219 2.117 C 144.738 2.219 145.582 2.387 146.121 2.5 C 146.656 2.613 147.535 2.801 148.094 2.93 C 148.652 3.055 149.563 3.266 150.137 3.406 C 150.715 3.547 151.652 3.781 152.246 3.938 C 152.844 4.09 153.809 4.352 154.422 4.52 C 155.031 4.688 156.023 4.969 156.648 5.156 C 157.277 5.34 158.293 5.645 158.934 5.844 C 159.57 6.043 160.609 6.375 161.262 6.59 C 161.914 6.805 162.973 7.16 163.637 7.391 C 164.301 7.621 165.375 8 166.047 8.246 C 166.723 8.492 167.813 8.898 168.496 9.16 C 169.176 9.418 170.277 9.852 170.969 10.129 C 171.66 10.402 172.77 10.859 173.465 11.148 C 174.16 11.441 175.281 11.922 175.98 12.227 C 176.68 12.531 177.805 13.035 178.508 13.355 C 179.211 13.68 180.34 14.203 181.043 14.539 C 181.746 14.875 182.879 15.422 183.582 15.773 C 184.285 16.121 185.414 16.691 186.117 17.055 C 186.816 17.414 187.945 18.008 188.645 18.383 C 189.344 18.758 190.461 19.367 191.156 19.754 C 191.852 20.141 192.965 20.77 193.652 21.168 C 194.344 21.566 195.445 22.215 196.125 22.625 C 196.809 23.031 197.898 23.695 198.57 24.113 C 199.246 24.531 200.32 25.211 200.984 25.637 C 201.648 26.066 202.707 26.758 203.363 27.191 C 204.016 27.629 205.059 28.332 205.699 28.773 C 206.34 29.215 207.359 29.93 207.988 30.379 C 208.621 30.828 209.617 31.551 210.234 32.004 C 210.848 32.457 211.824 33.188 212.422 33.641 C 213.023 34.098 213.973 34.832 214.559 35.293 C 215.141 35.754 216.066 36.492 216.633 36.953 C 217.199 37.414 218.098 38.152 218.645 38.613 C 219.195 39.074 220.063 39.813 220.594 40.273 C 221.125 40.734 221.961 41.473 222.473 41.93 C 222.984 42.387 223.793 43.121 224.285 43.574 C 224.777 44.031 225.551 44.758 226.023 45.207 C 226.496 45.656 228.039 47.176 228.492 47.617 Z M 195.086 47.617 " fill="#f6ffd5"/>
<path stroke-width=".751181" stroke-linecap="round" stroke-linejoin="round" fill="none" stroke="#000000" d="M 195.086 47.617 C 195.086 47.617 195.066 46.535 195.043 46.121 C 195.023 45.703 194.969 45.039 194.922 44.621 C 194.879 44.207 194.789 43.543 194.719 43.129 C 194.652 42.715 194.527 42.051 194.438 41.637 C 194.348 41.227 194.184 40.566 194.07 40.152 C 193.961 39.742 193.762 39.086 193.629 38.676 C 193.492 38.27 193.262 37.617 193.102 37.211 C 192.945 36.805 192.68 36.156 192.5 35.754 C 192.32 35.352 192.02 34.707 191.82 34.309 C 191.617 33.91 191.281 33.273 191.059 32.875 C 190.836 32.48 190.465 31.852 190.223 31.461 C 189.98 31.07 189.57 30.445 189.309 30.059 C 189.043 29.672 188.605 29.059 188.32 28.676 C 188.035 28.297 187.563 27.688 187.258 27.313 C 186.949 26.938 186.445 26.34 186.121 25.969 C 185.793 25.602 185.258 25.012 184.91 24.648 C 184.566 24.285 183.996 23.707 183.633 23.352 C 183.266 22.992 182.664 22.426 182.281 22.078 C 181.898 21.727 181.266 21.172 180.863 20.828 C 180.461 20.484 179.801 19.941 179.379 19.605 C 178.957 19.273 178.27 18.742 177.832 18.414 C 177.391 18.086 176.672 17.57 176.215 17.25 C 175.762 16.93 175.016 16.426 174.539 16.117 C 174.066 15.809 173.293 15.316 172.805 15.016 C 172.313 14.715 171.516 14.238 171.008 13.949 C 170.504 13.656 169.68 13.195 169.156 12.914 C 168.637 12.633 167.785 12.188 167.25 11.914 C 166.711 11.641 165.84 11.211 165.289 10.949 C 164.738 10.688 163.844 10.273 163.277 10.023 C 162.711 9.77 161.793 9.375 161.215 9.133 C 160.637 8.895 159.699 8.516 159.109 8.285 C 158.516 8.055 157.559 7.691 156.957 7.473 C 156.352 7.254 155.375 6.91 154.758 6.703 C 154.145 6.496 153.148 6.172 152.523 5.977 C 151.898 5.777 150.883 5.473 150.25 5.289 C 149.613 5.102 148.582 4.816 147.938 4.645 C 147.293 4.469 146.246 4.203 145.594 4.043 C 144.938 3.883 143.879 3.633 143.219 3.484 C 142.555 3.336 141.484 3.109 140.813 2.973 C 140.141 2.836 139.059 2.629 138.379 2.504 C 137.703 2.383 136.609 2.191 135.926 2.082 C 135.242 1.973 134.137 1.805 133.449 1.707 C 132.758 1.609 131.648 1.461 130.953 1.375 C 130.258 1.289 129.137 1.164 128.438 1.09 C 127.738 1.02 126.613 .914 125.91 .855 C 125.207 .797 124.078 .711 123.371 .664 C 122.668 .617 121.531 .555 120.824 .523 C 120.117 .488 118.98 .445 118.27 .426 C 117.563 .406 116.422 .387 115.711 .379 C 115.004 .375 113.863 .375 113.152 .379 C 112.445 .387 111.305 .406 110.598 .426 C 109.887 .445 108.75 .488 108.043 .523 C 107.332 .555 106.199 .617 105.496 .664 C 104.789 .711 103.66 .797 102.957 .855 C 102.254 .914 101.129 1.02 100.43 1.09 C 99.73 1.164 98.609 1.289 97.914 1.375 C 97.219 1.461 96.109 1.609 95.418 1.707 C 94.73 1.805 93.625 1.973 92.941 2.082 C 92.258 2.191 91.164 2.383 90.488 2.504 C 89.809 2.629 88.727 2.836 88.055 2.973 C 87.383 3.109 86.313 3.336 85.648 3.484 C 84.988 3.633 83.93 3.883 83.273 4.043 C 82.621 4.203 81.574 4.473 80.93 4.645 C 80.285 4.816 79.254 5.102 78.617 5.289 C 77.984 5.473 76.969 5.777 76.344 5.977 C 75.719 6.172 74.723 6.496 74.109 6.703 C 73.492 6.91 72.516 7.254 71.91 7.473 C 71.309 7.691 70.352 8.055 69.758 8.285 C 69.168 8.516 68.23 8.895 67.652 9.133 C 67.074 9.375 66.156 9.77 65.59 10.023 C 65.023 10.273 64.129 10.688 63.578 10.949 C 63.027 11.211 62.152 11.641 61.617 11.914 C 61.082 12.188 60.23 12.633 59.711 12.914 C 59.188 13.195 58.363 13.656 57.859 13.949 C 57.352 14.238 56.555 14.715 56.063 15.016 C 55.574 15.316 54.801 15.809 54.328 16.117 C 53.852 16.426 53.105 16.93 52.652 17.25 C 52.195 17.57 51.477 18.086 51.035 18.414 C 50.598 18.742 49.906 19.273 49.488 19.605 C 49.066 19.941 48.406 20.484 48.004 20.828 C 47.602 21.172 46.969 21.727 46.586 22.078 C 46.199 22.426 45.602 22.992 45.234 23.352 C 44.871 23.707 44.301 24.285 43.957 24.648 C 43.609 25.012 43.074 25.602 42.746 25.969 C 42.422 26.34 41.918 26.938 41.609 27.313 C 41.305 27.688 40.832 28.297 40.547 28.676 C 40.262 29.059 39.824 29.672 39.559 30.059 C 39.297 30.445 38.887 31.07 38.645 31.461 C 38.402 31.852 38.031 32.48 37.809 32.875 C 37.586 33.273 37.25 33.91 37.047 34.309 C 36.848 34.707 36.547 35.352 36.367 35.754 C 36.188 36.156 35.918 36.805 35.762 37.211 C 35.605 37.617 35.375 38.27 35.238 38.676 C 35.105 39.086 34.906 39.742 34.797 40.152 C 34.684 40.566 34.52 41.227 34.43 41.637 C 34.34 42.051 34.215 42.715 34.148 43.129 C 34.078 43.543 33.988 44.207 33.945 44.621 C 33.898 45.039 33.844 45.703 33.82 46.121 C 33.801 46.535 33.781 47.617 33.781 47.617 L .375 47.617 C .828 47.176 2.371 45.656 2.844 45.207 C 3.316 44.758 4.09 44.031 4.582 43.574 C 5.074 43.121 5.883 42.387 6.395 41.93 C 6.906 41.473 7.742 40.734 8.273 40.273 C 8.805 39.813 9.672 39.074 10.223 38.613 C 10.77 38.152 11.668 37.414 12.234 36.953 C 12.801 36.492 13.727 35.754 14.309 35.293 C 14.895 34.832 15.844 34.098 16.445 33.641 C 17.043 33.188 18.02 32.457 18.633 32.004 C 19.25 31.551 20.246 30.828 20.875 30.379 C 21.508 29.93 22.527 29.215 23.168 28.773 C 23.809 28.332 24.852 27.629 25.504 27.191 C 26.16 26.758 27.219 26.066 27.883 25.637 C 28.547 25.211 29.621 24.531 30.297 24.113 C 30.969 23.695 32.059 23.031 32.742 22.625 C 33.422 22.215 34.523 21.566 35.215 21.168 C 35.902 20.77 37.016 20.141 37.711 19.754 C 38.406 19.367 39.523 18.758 40.223 18.383 C 40.922 18.008 42.047 17.414 42.75 17.055 C 43.453 16.691 44.582 16.121 45.285 15.773 C 45.988 15.422 47.121 14.875 47.824 14.539 C 48.527 14.203 49.656 13.68 50.359 13.355 C 51.063 13.035 52.188 12.531 52.887 12.227 C 53.586 11.922 54.707 11.441 55.402 11.148 C 56.098 10.859 57.207 10.402 57.898 10.129 C 58.59 9.852 59.691 9.422 60.371 9.16 C 61.055 8.898 62.145 8.492 62.816 8.246 C 63.492 8 64.566 7.621 65.23 7.391 C 65.895 7.16 66.953 6.805 67.605 6.59 C 68.258 6.375 69.293 6.043 69.934 5.844 C 70.574 5.645 71.59 5.34 72.219 5.156 C 72.844 4.969 73.836 4.688 74.445 4.52 C 75.059 4.352 76.023 4.09 76.617 3.938 C 77.215 3.781 78.152 3.547 78.73 3.406 C 79.305 3.266 80.215 3.055 80.773 2.93 C 81.332 2.801 82.211 2.613 82.746 2.5 C 83.285 2.387 84.129 2.219 84.648 2.117 C 85.164 2.02 85.977 1.867 86.469 1.781 C 86.965 1.695 87.738 1.563 88.211 1.488 C 88.68 1.414 89.418 1.301 89.867 1.234 C 90.316 1.172 91.016 1.078 91.438 1.023 C 91.859 .969 92.52 .891 92.918 .848 C 93.313 .801 93.934 .738 94.305 .703 C 94.676 .668 95.254 .617 95.598 .59 C 95.941 .559 96.477 .523 96.793 .504 C 97.113 .484 97.602 .457 97.895 .441 C 98.188 .43 98.633 .41 98.895 .402 C 99.16 .395 99.559 .383 99.797 .383 C 100.031 .379 100.594 .375 100.594 .375 L 128.27 .375 C 128.27 .375 128.836 .379 129.07 .383 C 129.309 .383 129.707 .395 129.973 .402 C 130.234 .41 130.68 .426 130.973 .441 C 131.266 .457 131.754 .484 132.07 .504 C 132.391 .523 132.922 .563 133.27 .59 C 133.613 .617 134.191 .668 134.563 .703 C 134.934 .738 135.551 .801 135.949 .848 C 136.348 .891 137.008 .969 137.43 1.023 C 137.852 1.078 138.551 1.172 139 1.234 C 139.449 1.301 140.184 1.414 140.656 1.488 C 141.129 1.563 141.902 1.695 142.398 1.781 C 142.891 1.867 143.703 2.016 144.219 2.117 C 144.738 2.219 145.582 2.387 146.121 2.5 C 146.656 2.613 147.535 2.801 148.094 2.93 C 148.652 3.055 149.563 3.266 150.137 3.406 C 150.715 3.547 151.652 3.781 152.246 3.938 C 152.844 4.09 153.809 4.352 154.422 4.52 C 155.031 4.688 156.023 4.969 156.648 5.156 C 157.277 5.34 158.293 5.645 158.934 5.844 C 159.57 6.043 160.609 6.375 161.262 6.59 C 161.914 6.805 162.973 7.16 163.637 7.391 C 164.301 7.621 165.375 8 166.047 8.246 C 166.723 8.492 167.813 8.898 168.496 9.16 C 169.176 9.418 170.277 9.852 170.969 10.129 C 171.66 10.402 172.77 10.859 173.465 11.148 C 174.16 11.441 175.281 11.922 175.98 12.227 C 176.68 12.531 177.805 13.035 178.508 13.355 C 179.211 13.68 180.34 14.203 181.043 14.539 C 181.746 14.875 182.879 15.422 183.582 15.773 C 184.285 16.121 185.414 16.691 186.117 17.055 C 186.816 17.414 187.945 18.008 188.645 18.383 C 189.344 18.758 190.461 19.367 191.156 19.754 C 191.852 20.141 192.965 20.77 193.652 21.168 C 194.344 21.566 195.445 22.215 196.125 22.625 C 196.809 23.031 197.898 23.695 198.57 24.113 C 199.246 24.531 200.32 25.211 200.984 25.637 C 201.648 26.066 202.707 26.758 203.363 27.191 C 204.016 27.629 205.059 28.332 205.699 28.773 C 206.34 29.215 207.359 29.93 207.988 30.379 C 208.621 30.828 209.617 31.551 210.234 32.004 C 210.848 32.457 211.824 33.188 212.422 33.641 C 213.023 34.098 213.973 34.832 214.559 35.293 C 215.141 35.754 216.066 36.492 216.633 36.953 C 217.199 37.414 218.098 38.152 218.645 38.613 C 219.195 39.074 220.063 39.813 220.594 40.273 C 221.125 40.734 221.961 41.473 222.473 41.93 C 222.984 42.387 223.793 43.121 224.285 43.574 C 224.777 44.031 225.551 44.758 226.023 45.207 C 226.496 45.656 228.039 47.176 228.492 47.617 Z M 195.086 47.617 "/>
</g>
</g>
</svg>
