<?xml version="1.0" encoding="UTF-8" standalone="no"?>
<!DOCTYPE svg PUBLIC "-//W3C//DTD SVG 1.1//EN" "http://www.w3.org/Graphics/SVG/1.1/DTD/svg11.dtd">
<svg xmlns="http://www.w3.org/2000/svg" xmlns:xlink="http://www.w3.org/1999/xlink" version="1.1" width="283.86674pt" height="118.51027pt" viewBox="0 0 283.86674 118.51027">
<g enable-background="new">
<g>
<path transform="matrix(1,0,0,-1,0,0)" stroke-width=".3985" stroke-linecap="round" stroke-linejoin="round" fill="none" stroke="#bfbfbf" d="M .199 -118.313 L .199 -.199 M 23.82 -118.313 L 23.82 -.199 M 47.445 -118.313 L 47.445 -.199 M 71.066 -118.313 L 71.066 -.199 M 94.688 -118.313 L 94.688 -.199 M 118.313 -118.313 L 118.313 -.199 M 165.555 -118.313 L 165.555 -.199 M 189.18 -118.313 L 189.18 -.199 M 212.801 -118.313 L 212.801 -.199 M 236.422 -118.313 L 236.422 -.199 M 260.047 -118.313 L 260.047 -.199 M 283.668 -118.313 L 283.668 -.199 "/>
<path transform="matrix(1,0,0,-1,0,0)" stroke-width=".3985" stroke-linecap="round" stroke-linejoin="round" fill="none" stroke="#bfbfbf" d="M .199 -118.313 L 283.668 -118.313 M .199 -94.688 L 283.668 -94.688 M .199 -47.445 L 283.668 -47.445 M .199 -23.82 L 283.668 -23.82 M .199 -.199 L 283.668 -.199 "/>
<path transform="matrix(1,0,0,-1,0,0)" stroke-width=".19925" stroke-linecap="round" stroke-linejoin="round" fill="none" stroke="#808080" d="M .199 -73.191 L .199 -68.941 M 23.82 -73.191 L 23.82 -68.941 M 47.445 -73.191 L 47.445 -68.941 M 71.066 -73.191 L 71.066 -68.941 M 94.688 -73.191 L 94.688 -68.941 M 118.313 -73.191 L 118.313 -68.941 M 165.555 -73.191 L 165.555 -68.941 M 189.18 -73.191 L 189.18 -68.941 M 212.801 -73.191 L 212.801 -68.941 M 236.422 -73.191 L 236.422 -68.941 M 260.047 -73.191 L 260.047 -68.941 M 283.668 -73.191 L 283.668 -68.941 "/>
<path transform="matrix(1,0,0,-1,0,0)" stroke-width=".19925" stroke-linecap="round" stroke-linejoin="round" fill="none" stroke="#808080" d="M 139.809 -118.313 L 144.059 -118.313 M 139.809 -94.688 L 144.059 -94.688 M 139.809 -47.445 L 144.059 -47.445 M 139.809 -23.82 L 144.059 -23.82 M 139.809 -.199 L 144.059 -.199 "/>
<path transform="matrix(1,0,0,-1,0,0)" stroke-width=".3985" stroke-linecap="round" stroke-linejoin="round" fill="none" stroke="#000000" d="M .199 -71.066 L 281.676 -71.066 "/>
<path d="M 283.668 71.066 L 280.48 69.473 L 281.676 71.066 L 280.48 72.66 "/>
<path transform="matrix(1,0,0,-1,0,0)" stroke-width=".3985" stroke-linecap="round" stroke-linejoin="round" fill="none" stroke="#000000" d="M 141.934 -118.313 L 141.934 -2.191 "/>
<path d="M 141.934 .199 L 140.34 3.387 L 141.934 2.191 L 143.527 3.387 "/>
<clipPath id="cp0">
<path d="M .199 .199 L 283.668 .199 L 283.668 118.312 L .199 118.312 Z "/>
</clipPath>
<g clip-path="url(#cp0)">
<clipPath id="cp1">
<path d="M 0 0 L 284 0 L 284 119 L 0 119 Z "/>
</clipPath>
<g clip-path="url(#cp1)">
<path transform="matrix(1,0,0,-1,0,0)" stroke-width=".751181" stroke-linecap="butt" stroke-miterlimit="4" stroke-linejoin="miter" fill="none" stroke="#000000" d="M 141.934 -.199 L 141.934 -118.313 "/>
<path transform="matrix(1,0,0,-1,0,0)" stroke-width=".751181" stroke-linecap="round" stroke-linejoin="round" fill="none" stroke="#000000" d="M 222.586 -71.066 C 222.586 -71.066 222.566 -69.984 222.543 -69.566 C 222.523 -69.152 222.469 -68.484 222.422 -68.07 C 222.379 -67.656 222.289 -66.988 222.219 -66.574 C 222.152 -66.16 222.027 -65.5 221.938 -65.086 C 221.848 -64.672 221.684 -64.012 221.57 -63.602 C 221.461 -63.191 221.262 -62.535 221.129 -62.125 C 220.992 -61.719 220.762 -61.063 220.602 -60.656 C 220.445 -60.254 220.18 -59.602 220 -59.199 C 219.82 -58.797 219.52 -58.156 219.316 -57.758 C 219.117 -57.355 218.781 -56.719 218.559 -56.324 C 218.336 -55.93 217.965 -55.297 217.723 -54.906 C 217.48 -54.516 217.07 -53.895 216.809 -53.508 C 216.543 -53.121 216.105 -52.504 215.82 -52.125 C 215.535 -51.742 215.063 -51.137 214.758 -50.762 C 214.449 -50.387 213.945 -49.789 213.621 -49.418 C 213.293 -49.047 212.758 -48.461 212.41 -48.098 C 212.066 -47.734 211.496 -47.156 211.133 -46.797 C 210.766 -46.441 210.164 -45.875 209.781 -45.523 C 209.398 -45.176 208.766 -44.617 208.363 -44.277 C 207.961 -43.934 207.301 -43.391 206.879 -43.055 C 206.457 -42.719 205.77 -42.188 205.332 -41.863 C 204.891 -41.535 204.172 -41.016 203.715 -40.699 C 203.262 -40.379 202.516 -39.875 202.039 -39.566 C 201.566 -39.254 200.793 -38.766 200.305 -38.465 C 199.813 -38.164 199.016 -37.688 198.508 -37.395 C 198.004 -37.105 197.18 -36.645 196.656 -36.359 C 196.137 -36.078 195.285 -35.633 194.75 -35.359 C 194.211 -35.09 193.34 -34.66 192.789 -34.398 C 192.238 -34.137 191.344 -33.723 190.777 -33.473 C 190.211 -33.219 189.293 -32.824 188.715 -32.582 C 188.137 -32.34 187.199 -31.961 186.609 -31.73 C 186.016 -31.5 185.059 -31.141 184.453 -30.922 C 183.852 -30.703 182.875 -30.359 182.258 -30.152 C 181.645 -29.941 180.648 -29.617 180.023 -29.422 C 179.398 -29.227 178.383 -28.922 177.75 -28.734 C 177.113 -28.551 176.082 -28.266 175.438 -28.09 C 174.793 -27.918 173.746 -27.652 173.094 -27.488 C 172.438 -27.328 171.379 -27.082 170.715 -26.934 C 170.055 -26.785 168.984 -26.555 168.313 -26.422 C 167.641 -26.285 166.559 -26.074 165.879 -25.953 C 165.203 -25.828 164.109 -25.641 163.426 -25.531 C 162.742 -25.418 161.637 -25.25 160.949 -25.152 C 160.258 -25.055 159.148 -24.91 158.453 -24.824 C 157.758 -24.738 156.637 -24.613 155.938 -24.539 C 155.238 -24.469 154.113 -24.363 153.41 -24.301 C 152.707 -24.242 151.578 -24.16 150.871 -24.113 C 150.168 -24.066 149.031 -24.004 148.324 -23.969 C 147.617 -23.938 146.48 -23.895 145.77 -23.875 C 145.063 -23.855 143.922 -23.836 143.211 -23.828 C 142.504 -23.82 141.363 -23.82 140.652 -23.828 C 139.945 -23.836 138.805 -23.855 138.098 -23.875 C 137.387 -23.895 136.25 -23.938 135.543 -23.969 C 134.832 -24.004 133.699 -24.066 132.996 -24.113 C 132.289 -24.16 131.16 -24.242 130.457 -24.301 C 129.754 -24.363 128.629 -24.469 127.93 -24.539 C 127.23 -24.613 126.109 -24.738 125.414 -24.824 C 124.719 -24.91 123.609 -25.055 122.918 -25.152 C 122.23 -25.25 121.125 -25.418 120.441 -25.531 C 119.758 -25.641 118.664 -25.828 117.988 -25.953 C 117.309 -26.074 116.227 -26.285 115.555 -26.422 C 114.883 -26.555 113.813 -26.785 113.148 -26.934 C 112.488 -27.082 111.43 -27.328 110.773 -27.488 C 110.117 -27.652 109.074 -27.918 108.43 -28.09 C 107.785 -28.266 106.754 -28.551 106.117 -28.734 C 105.48 -28.922 104.469 -29.227 103.844 -29.422 C 103.219 -29.617 102.223 -29.941 101.609 -30.152 C 100.992 -30.359 100.016 -30.703 99.41 -30.922 C 98.809 -31.141 97.852 -31.5 97.258 -31.73 C 96.668 -31.961 95.73 -32.34 95.152 -32.582 C 94.574 -32.824 93.656 -33.219 93.09 -33.473 C 92.523 -33.723 91.629 -34.137 91.078 -34.398 C 90.527 -34.66 89.652 -35.09 89.117 -35.359 C 88.582 -35.633 87.73 -36.078 87.211 -36.359 C 86.688 -36.645 85.863 -37.105 85.359 -37.395 C 84.852 -37.688 84.055 -38.164 83.563 -38.465 C 83.074 -38.766 82.301 -39.254 81.828 -39.566 C 81.352 -39.875 80.605 -40.379 80.152 -40.699 C 79.695 -41.016 78.977 -41.535 78.535 -41.863 C 78.098 -42.188 77.406 -42.719 76.988 -43.055 C 76.566 -43.391 75.906 -43.934 75.504 -44.277 C 75.102 -44.617 74.469 -45.176 74.086 -45.523 C 73.699 -45.875 73.102 -46.441 72.734 -46.797 C 72.371 -47.156 71.801 -47.734 71.457 -48.098 C 71.109 -48.461 70.574 -49.047 70.246 -49.418 C 69.922 -49.789 69.414 -50.387 69.109 -50.762 C 68.805 -51.137 68.332 -51.742 68.047 -52.125 C 67.762 -52.504 67.324 -53.121 67.059 -53.508 C 66.797 -53.895 66.387 -54.516 66.145 -54.906 C 65.902 -55.297 65.531 -55.93 65.309 -56.324 C 65.086 -56.719 64.75 -57.355 64.547 -57.758 C 64.348 -58.156 64.047 -58.797 63.867 -59.199 C 63.688 -59.602 63.418 -60.254 63.262 -60.656 C 63.105 -61.063 62.875 -61.719 62.738 -62.125 C 62.605 -62.535 62.406 -63.191 62.293 -63.602 C 62.184 -64.012 62.02 -64.672 61.93 -65.086 C 61.84 -65.5 61.715 -66.16 61.648 -66.574 C 61.578 -66.988 61.488 -67.656 61.445 -68.07 C 61.398 -68.484 61.344 -69.152 61.32 -69.566 C 61.301 -69.984 61.281 -71.066 61.281 -71.066 "/>
<path transform="matrix(1,0,0,-1,0,0)" stroke-width=".751181" stroke-linecap="round" stroke-linejoin="round" fill="none" stroke="#0000ff" d="M 269.828 -71.066 C 269.828 -71.066 269.836 -72.055 269.84 -72.438 C 269.848 -72.816 269.859 -73.422 269.871 -73.801 C 269.887 -74.18 269.91 -74.781 269.926 -75.156 C 269.945 -75.527 269.977 -76.125 270 -76.492 C 270.023 -76.863 270.066 -77.449 270.094 -77.813 C 270.125 -78.176 270.176 -78.75 270.207 -79.105 C 270.242 -79.461 270.301 -80.023 270.34 -80.367 C 270.379 -80.715 270.445 -81.262 270.484 -81.598 C 270.527 -81.934 270.602 -82.461 270.648 -82.785 C 270.695 -83.109 270.773 -83.617 270.82 -83.93 C 270.871 -84.238 270.953 -84.727 271.004 -85.023 C 271.059 -85.32 271.145 -85.785 271.199 -86.066 C 271.25 -86.348 271.34 -86.789 271.395 -87.055 C 271.449 -87.32 271.543 -87.73 271.598 -87.98 C 271.652 -88.227 271.742 -88.613 271.801 -88.844 C 271.855 -89.07 271.945 -89.426 272 -89.637 C 272.051 -89.848 272.141 -90.168 272.191 -90.359 C 272.246 -90.551 272.328 -90.84 272.379 -91.012 C 272.426 -91.18 272.504 -91.438 272.551 -91.586 C 272.598 -91.734 272.668 -91.957 272.711 -92.082 C 272.75 -92.207 272.813 -92.395 272.848 -92.496 C 272.887 -92.602 272.938 -92.75 272.969 -92.832 C 272.996 -92.91 273.039 -93.023 273.063 -93.082 C 273.082 -93.137 273.113 -93.211 273.125 -93.246 C 273.141 -93.277 273.152 -93.313 273.156 -93.324 C 273.16 -93.332 273.16 -93.332 273.152 -93.316 C 273.148 -93.301 273.129 -93.258 273.113 -93.223 C 273.094 -93.184 273.055 -93.102 273.027 -93.039 C 272.996 -92.977 272.938 -92.855 272.895 -92.77 C 272.852 -92.684 272.773 -92.523 272.715 -92.414 C 272.66 -92.305 272.555 -92.109 272.484 -91.973 C 272.414 -91.84 272.285 -91.605 272.199 -91.449 C 272.109 -91.293 271.957 -91.02 271.852 -90.84 C 271.75 -90.66 271.566 -90.355 271.445 -90.152 C 271.324 -89.949 271.117 -89.605 270.977 -89.383 C 270.84 -89.156 270.602 -88.781 270.441 -88.535 C 270.285 -88.289 270.016 -87.879 269.84 -87.613 C 269.664 -87.348 269.363 -86.906 269.168 -86.621 C 268.973 -86.336 268.641 -85.859 268.422 -85.559 C 268.207 -85.254 267.84 -84.75 267.605 -84.426 C 267.367 -84.105 266.969 -83.574 266.711 -83.234 C 266.453 -82.895 266.02 -82.336 265.742 -81.98 C 265.461 -81.625 264.996 -81.043 264.695 -80.672 C 264.395 -80.301 263.895 -79.695 263.57 -79.309 C 263.25 -78.926 262.715 -78.297 262.367 -77.902 C 262.023 -77.504 261.453 -76.855 261.086 -76.445 C 260.723 -76.035 260.117 -75.371 259.73 -74.953 C 259.34 -74.531 258.703 -73.852 258.293 -73.422 C 257.883 -72.992 257.207 -72.297 256.777 -71.859 C 256.348 -71.422 255.641 -70.711 255.188 -70.27 C 254.734 -69.824 253.996 -69.105 253.523 -68.656 C 253.051 -68.203 252.277 -67.477 251.785 -67.023 C 251.293 -66.57 250.484 -65.836 249.973 -65.379 C 249.461 -64.918 248.625 -64.184 248.094 -63.723 C 247.563 -63.262 246.695 -62.523 246.145 -62.063 C 245.598 -61.602 244.699 -60.859 244.133 -60.398 C 243.566 -59.938 242.641 -59.199 242.059 -58.742 C 241.473 -58.281 240.523 -57.547 239.922 -57.09 C 239.324 -56.633 238.348 -55.902 237.734 -55.449 C 237.117 -54.996 236.121 -54.273 235.488 -53.828 C 234.859 -53.379 233.84 -52.664 233.199 -52.223 C 232.559 -51.781 231.516 -51.074 230.863 -50.641 C 230.207 -50.207 229.148 -49.512 228.484 -49.086 C 227.82 -48.66 226.746 -47.98 226.07 -47.563 C 225.398 -47.145 224.309 -46.48 223.625 -46.07 C 222.945 -45.664 221.844 -45.016 221.152 -44.617 C 220.465 -44.219 219.352 -43.59 218.656 -43.203 C 217.961 -42.816 216.844 -42.203 216.145 -41.828 C 215.445 -41.453 214.316 -40.863 213.617 -40.5 C 212.914 -40.141 211.785 -39.57 211.082 -39.219 C 210.379 -38.871 209.246 -38.32 208.543 -37.988 C 207.84 -37.652 206.711 -37.125 206.008 -36.805 C 205.305 -36.484 204.18 -35.98 203.48 -35.676 C 202.781 -35.367 201.66 -34.891 200.965 -34.598 C 200.27 -34.305 199.16 -33.852 198.469 -33.574 C 197.777 -33.297 196.676 -32.867 195.996 -32.605 C 195.313 -32.348 194.223 -31.941 193.547 -31.695 C 192.875 -31.449 191.801 -31.066 191.137 -30.84 C 190.473 -30.609 189.414 -30.254 188.762 -30.039 C 188.109 -29.824 187.07 -29.492 186.434 -29.293 C 185.793 -29.094 184.777 -28.785 184.148 -28.602 C 183.523 -28.418 182.531 -28.137 181.922 -27.969 C 181.309 -27.797 180.344 -27.539 179.746 -27.383 C 179.152 -27.23 178.215 -26.996 177.637 -26.855 C 177.063 -26.715 176.152 -26.504 175.594 -26.375 C 175.035 -26.25 174.156 -26.059 173.621 -25.945 C 173.082 -25.836 172.238 -25.664 171.719 -25.566 C 171.203 -25.465 170.391 -25.316 169.898 -25.227 C 169.402 -25.141 168.629 -25.012 168.156 -24.938 C 167.688 -24.859 166.949 -24.75 166.5 -24.684 C 166.051 -24.621 165.352 -24.523 164.93 -24.473 C 164.508 -24.418 163.848 -24.34 163.449 -24.293 C 163.051 -24.25 162.434 -24.188 162.063 -24.148 C 161.691 -24.113 161.113 -24.063 160.77 -24.035 C 160.426 -24.008 159.891 -23.973 159.57 -23.949 C 159.254 -23.93 158.766 -23.902 158.473 -23.891 C 158.18 -23.875 157.734 -23.859 157.473 -23.848 C 157.207 -23.84 156.809 -23.832 156.57 -23.828 C 156.336 -23.824 155.77 -23.82 155.77 -23.82 M 14.035 -71.066 C 14.035 -71.066 14.031 -72.055 14.027 -72.438 C 14.02 -72.816 14.004 -73.422 13.992 -73.801 C 13.98 -74.18 13.957 -74.781 13.941 -75.156 C 13.922 -75.527 13.887 -76.125 13.863 -76.492 C 13.84 -76.863 13.801 -77.449 13.77 -77.813 C 13.742 -78.176 13.691 -78.75 13.656 -79.105 C 13.625 -79.461 13.566 -80.023 13.527 -80.367 C 13.488 -80.715 13.422 -81.262 13.379 -81.598 C 13.336 -81.934 13.266 -82.461 13.219 -82.785 C 13.172 -83.109 13.094 -83.617 13.047 -83.93 C 12.996 -84.238 12.914 -84.727 12.859 -85.023 C 12.809 -85.32 12.723 -85.785 12.668 -86.066 C 12.613 -86.348 12.527 -86.789 12.473 -87.055 C 12.414 -87.32 12.324 -87.73 12.27 -87.98 C 12.215 -88.227 12.125 -88.613 12.066 -88.844 C 12.012 -89.07 11.922 -89.426 11.867 -89.637 C 11.813 -89.848 11.727 -90.168 11.676 -90.359 C 11.621 -90.551 11.539 -90.84 11.488 -91.012 C 11.441 -91.18 11.363 -91.438 11.316 -91.586 C 11.27 -91.734 11.199 -91.957 11.156 -92.082 C 11.117 -92.207 11.055 -92.395 11.016 -92.496 C 10.98 -92.602 10.93 -92.75 10.898 -92.832 C 10.871 -92.91 10.828 -93.023 10.805 -93.082 C 10.785 -93.137 10.754 -93.211 10.742 -93.246 C 10.727 -93.277 10.715 -93.313 10.711 -93.324 C 10.707 -93.332 10.707 -93.332 10.711 -93.316 C 10.719 -93.301 10.738 -93.258 10.754 -93.223 C 10.773 -93.184 10.809 -93.102 10.84 -93.039 C 10.871 -92.977 10.93 -92.855 10.973 -92.77 C 11.016 -92.684 11.094 -92.523 11.152 -92.414 C 11.207 -92.305 11.313 -92.109 11.383 -91.973 C 11.453 -91.84 11.582 -91.605 11.668 -91.449 C 11.758 -91.293 11.91 -91.02 12.016 -90.84 C 12.117 -90.66 12.297 -90.355 12.422 -90.152 C 12.543 -89.949 12.75 -89.605 12.891 -89.383 C 13.027 -89.156 13.266 -88.781 13.422 -88.535 C 13.582 -88.289 13.848 -87.879 14.027 -87.613 C 14.203 -87.348 14.504 -86.906 14.699 -86.621 C 14.895 -86.336 15.227 -85.859 15.445 -85.559 C 15.66 -85.254 16.023 -84.75 16.262 -84.426 C 16.5 -84.105 16.898 -83.574 17.156 -83.234 C 17.414 -82.895 17.844 -82.336 18.125 -81.98 C 18.406 -81.625 18.871 -81.043 19.172 -80.672 C 19.473 -80.301 19.973 -79.695 20.297 -79.309 C 20.617 -78.926 21.152 -78.297 21.5 -77.902 C 21.844 -77.504 22.414 -76.855 22.777 -76.445 C 23.145 -76.035 23.75 -75.371 24.137 -74.953 C 24.527 -74.531 25.164 -73.852 25.574 -73.422 C 25.984 -72.992 26.656 -72.297 27.09 -71.859 C 27.52 -71.422 28.227 -70.711 28.68 -70.27 C 29.129 -69.824 29.871 -69.105 30.344 -68.656 C 30.816 -68.203 31.59 -67.477 32.082 -67.023 C 32.574 -66.57 33.383 -65.836 33.895 -65.379 C 34.406 -64.918 35.242 -64.184 35.773 -63.723 C 36.305 -63.262 37.172 -62.523 37.723 -62.063 C 38.27 -61.602 39.168 -60.859 39.734 -60.398 C 40.301 -59.938 41.227 -59.199 41.809 -58.742 C 42.395 -58.281 43.344 -57.547 43.945 -57.09 C 44.543 -56.633 45.52 -55.902 46.133 -55.449 C 46.75 -54.996 47.746 -54.273 48.375 -53.828 C 49.004 -53.379 50.027 -52.664 50.668 -52.223 C 51.309 -51.781 52.352 -51.074 53.004 -50.641 C 53.656 -50.207 54.719 -49.512 55.383 -49.086 C 56.047 -48.66 57.121 -47.98 57.797 -47.563 C 58.469 -47.145 59.559 -46.48 60.242 -46.07 C 60.922 -45.664 62.023 -45.016 62.715 -44.617 C 63.402 -44.219 64.516 -43.59 65.211 -43.203 C 65.906 -42.816 67.023 -42.203 67.723 -41.828 C 68.422 -41.453 69.547 -40.863 70.25 -40.5 C 70.953 -40.141 72.082 -39.57 72.785 -39.219 C 73.488 -38.871 74.621 -38.32 75.324 -37.988 C 76.027 -37.652 77.156 -37.125 77.859 -36.805 C 78.563 -36.484 79.688 -35.98 80.387 -35.676 C 81.086 -35.367 82.207 -34.891 82.902 -34.598 C 83.598 -34.305 84.707 -33.852 85.398 -33.574 C 86.086 -33.297 87.191 -32.867 87.871 -32.605 C 88.555 -32.348 89.645 -31.941 90.316 -31.695 C 90.992 -31.449 92.066 -31.066 92.73 -30.84 C 93.395 -30.609 94.453 -30.254 95.105 -30.039 C 95.758 -29.824 96.793 -29.492 97.434 -29.293 C 98.074 -29.094 99.09 -28.785 99.719 -28.602 C 100.344 -28.418 101.336 -28.137 101.945 -27.969 C 102.559 -27.797 103.523 -27.539 104.117 -27.383 C 104.711 -27.23 105.652 -26.996 106.23 -26.855 C 106.805 -26.715 107.715 -26.504 108.273 -26.375 C 108.832 -26.25 109.711 -26.059 110.246 -25.945 C 110.785 -25.836 111.629 -25.664 112.148 -25.566 C 112.664 -25.465 113.473 -25.316 113.969 -25.227 C 114.465 -25.141 115.238 -25.012 115.711 -24.938 C 116.18 -24.859 116.918 -24.75 117.367 -24.684 C 117.813 -24.621 118.512 -24.523 118.938 -24.473 C 119.359 -24.418 120.02 -24.34 120.418 -24.293 C 120.813 -24.25 121.434 -24.188 121.805 -24.148 C 122.176 -24.113 122.75 -24.063 123.098 -24.035 C 123.441 -24.008 123.977 -23.973 124.293 -23.949 C 124.613 -23.93 125.102 -23.902 125.395 -23.891 C 125.684 -23.875 126.129 -23.859 126.395 -23.848 C 126.66 -23.84 127.059 -23.832 127.297 -23.828 C 127.531 -23.824 128.094 -23.82 128.094 -23.82 "/>
<path transform="matrix(1,0,0,-1,0,0)" stroke-width=".75" stroke-linecap="butt" stroke-miterlimit="4" stroke-linejoin="miter" fill="none" stroke="#0000ff" d="M 128.09 -23.82 L 155.777 -23.82 "/>
<path transform="matrix(1,0,0,-1,0,0)" stroke-width=".75" stroke-linecap="butt" stroke-miterlimit="4" stroke-linejoin="miter" fill="none" stroke="#ff0000" d="M 128.047 -71.066 L 155.82 -71.066 "/>
<path transform="matrix(1,0,0,-1,0,0)" stroke-width=".751181" stroke-linecap="round" stroke-linejoin="round" fill="none" stroke="#ff0000" d="M 222.586 -71.066 C 222.586 -71.066 222.594 -72.598 222.602 -73.188 C 222.609 -73.773 222.633 -74.715 222.652 -75.301 C 222.672 -75.883 222.707 -76.82 222.734 -77.402 C 222.762 -77.984 222.816 -78.914 222.852 -79.492 C 222.887 -80.066 222.953 -80.988 223 -81.555 C 223.043 -82.125 223.125 -83.035 223.18 -83.598 C 223.23 -84.16 223.324 -85.055 223.387 -85.605 C 223.445 -86.156 223.551 -87.035 223.621 -87.578 C 223.691 -88.117 223.809 -88.98 223.883 -89.508 C 223.961 -90.039 224.086 -90.879 224.168 -91.395 C 224.254 -91.91 224.391 -92.727 224.477 -93.23 C 224.566 -93.73 224.715 -94.523 224.809 -95.008 C 224.898 -95.496 225.055 -96.262 225.152 -96.73 C 225.25 -97.199 225.41 -97.938 225.512 -98.391 C 225.613 -98.84 225.781 -99.547 225.887 -99.98 C 225.992 -100.414 226.16 -101.09 226.27 -101.504 C 226.375 -101.914 226.547 -102.559 226.656 -102.949 C 226.766 -103.34 226.938 -103.953 227.047 -104.32 C 227.156 -104.691 227.328 -105.266 227.438 -105.613 C 227.543 -105.961 227.719 -106.5 227.824 -106.824 C 227.93 -107.148 228.098 -107.648 228.203 -107.949 C 228.309 -108.25 228.473 -108.715 228.57 -108.988 C 228.672 -109.266 228.832 -109.691 228.926 -109.941 C 229.023 -110.195 229.176 -110.578 229.266 -110.805 C 229.355 -111.031 229.496 -111.375 229.582 -111.578 C 229.664 -111.777 229.797 -112.082 229.871 -112.258 C 229.949 -112.434 230.066 -112.695 230.137 -112.848 C 230.203 -112.996 230.309 -113.219 230.367 -113.344 C 230.426 -113.469 230.516 -113.648 230.566 -113.75 C 230.613 -113.852 230.684 -113.988 230.723 -114.063 C 230.762 -114.137 230.813 -114.238 230.84 -114.285 C 230.867 -114.336 230.898 -114.395 230.914 -114.418 C 230.926 -114.445 230.938 -114.465 230.938 -114.465 C 230.938 -114.465 230.926 -114.445 230.91 -114.422 C 230.898 -114.395 230.863 -114.34 230.832 -114.289 C 230.805 -114.242 230.742 -114.148 230.699 -114.078 C 230.652 -114.008 230.566 -113.875 230.504 -113.785 C 230.445 -113.691 230.332 -113.523 230.254 -113.41 C 230.176 -113.297 230.035 -113.098 229.938 -112.961 C 229.844 -112.828 229.672 -112.594 229.559 -112.438 C 229.445 -112.285 229.246 -112.02 229.113 -111.844 C 228.984 -111.672 228.754 -111.379 228.605 -111.188 C 228.453 -110.992 228.195 -110.672 228.027 -110.461 C 227.855 -110.254 227.566 -109.902 227.379 -109.68 C 227.191 -109.453 226.871 -109.078 226.664 -108.84 C 226.453 -108.598 226.105 -108.203 225.879 -107.949 C 225.648 -107.691 225.27 -107.273 225.023 -107.008 C 224.777 -106.742 224.363 -106.301 224.098 -106.023 C 223.832 -105.746 223.391 -105.289 223.105 -105 C 222.82 -104.711 222.352 -104.238 222.047 -103.938 C 221.742 -103.641 221.242 -103.156 220.922 -102.848 C 220.598 -102.543 220.066 -102.043 219.727 -101.73 C 219.387 -101.414 218.828 -100.906 218.473 -100.586 C 218.113 -100.27 217.527 -99.75 217.152 -99.426 C 216.781 -99.102 216.168 -98.582 215.777 -98.254 C 215.387 -97.926 214.746 -97.398 214.344 -97.07 C 213.938 -96.738 213.273 -96.207 212.852 -95.879 C 212.434 -95.547 211.746 -95.016 211.313 -94.684 C 210.875 -94.355 210.168 -93.824 209.719 -93.496 C 209.273 -93.164 208.543 -92.637 208.086 -92.309 C 207.625 -91.984 206.879 -91.461 206.406 -91.137 C 205.938 -90.813 205.172 -90.293 204.691 -89.977 C 204.211 -89.656 203.434 -89.145 202.941 -88.832 C 202.453 -88.516 201.66 -88.016 201.164 -87.707 C 200.664 -87.398 199.859 -86.906 199.355 -86.605 C 198.852 -86.305 198.039 -85.828 197.531 -85.531 C 197.02 -85.238 196.199 -84.773 195.688 -84.488 C 195.172 -84.199 194.348 -83.75 193.832 -83.473 C 193.313 -83.195 192.484 -82.762 191.969 -82.492 C 191.449 -82.227 190.617 -81.809 190.102 -81.551 C 189.582 -81.293 188.754 -80.891 188.238 -80.645 C 187.723 -80.398 186.895 -80.016 186.383 -79.781 C 185.867 -79.547 185.047 -79.18 184.539 -78.957 C 184.027 -78.734 183.215 -78.383 182.711 -78.172 C 182.211 -77.961 181.406 -77.633 180.91 -77.434 C 180.414 -77.238 179.621 -76.926 179.133 -76.742 C 178.645 -76.555 177.867 -76.266 177.391 -76.09 C 176.91 -75.918 176.152 -75.648 175.684 -75.484 C 175.215 -75.324 174.477 -75.074 174.02 -74.922 C 173.566 -74.773 172.844 -74.543 172.402 -74.406 C 171.961 -74.27 171.266 -74.059 170.84 -73.934 C 170.414 -73.809 169.742 -73.617 169.332 -73.504 C 168.922 -73.391 168.277 -73.219 167.883 -73.117 C 167.488 -73.012 166.875 -72.859 166.5 -72.77 C 166.125 -72.676 165.539 -72.539 165.184 -72.461 C 164.832 -72.379 164.277 -72.258 163.945 -72.191 C 163.609 -72.121 163.09 -72.016 162.777 -71.957 C 162.465 -71.895 161.984 -71.809 161.695 -71.754 C 161.402 -71.703 160.957 -71.629 160.691 -71.586 C 160.426 -71.543 160.02 -71.484 159.777 -71.449 C 159.535 -71.414 159.164 -71.363 158.949 -71.336 C 158.73 -71.309 158.406 -71.27 158.215 -71.246 C 158.023 -71.227 157.738 -71.195 157.57 -71.18 C 157.406 -71.164 157.164 -71.145 157.023 -71.133 C 156.887 -71.121 156.688 -71.109 156.574 -71.102 C 156.465 -71.094 156.309 -71.086 156.223 -71.082 C 156.141 -71.078 156.027 -71.074 155.973 -71.07 C 155.918 -71.07 155.848 -71.066 155.82 -71.066 C 155.793 -71.066 155.77 -71.066 155.77 -71.066 M 61.281 -71.066 C 61.281 -71.066 61.273 -72.598 61.266 -73.188 C 61.258 -73.773 61.234 -74.715 61.215 -75.301 C 61.195 -75.883 61.16 -76.82 61.133 -77.402 C 61.105 -77.984 61.051 -78.914 61.016 -79.492 C 60.977 -80.066 60.914 -80.988 60.867 -81.555 C 60.82 -82.125 60.742 -83.035 60.688 -83.598 C 60.637 -84.16 60.543 -85.055 60.48 -85.605 C 60.418 -86.156 60.313 -87.035 60.246 -87.578 C 60.176 -88.117 60.059 -88.98 59.984 -89.508 C 59.906 -90.039 59.781 -90.879 59.695 -91.395 C 59.613 -91.91 59.477 -92.727 59.387 -93.23 C 59.301 -93.73 59.152 -94.523 59.059 -95.008 C 58.965 -95.496 58.813 -96.262 58.715 -96.73 C 58.617 -97.199 58.457 -97.938 58.355 -98.391 C 58.25 -98.84 58.086 -99.547 57.98 -99.98 C 57.875 -100.414 57.707 -101.09 57.598 -101.504 C 57.492 -101.914 57.32 -102.559 57.211 -102.949 C 57.102 -103.34 56.93 -103.953 56.82 -104.32 C 56.711 -104.691 56.539 -105.266 56.43 -105.613 C 56.32 -105.961 56.148 -106.5 56.043 -106.824 C 55.938 -107.148 55.766 -107.648 55.664 -107.949 C 55.559 -108.25 55.395 -108.715 55.293 -108.988 C 55.195 -109.266 55.035 -109.691 54.938 -109.941 C 54.844 -110.195 54.691 -110.578 54.602 -110.805 C 54.512 -111.031 54.371 -111.375 54.285 -111.578 C 54.203 -111.777 54.07 -112.082 53.996 -112.258 C 53.918 -112.434 53.801 -112.695 53.73 -112.848 C 53.66 -112.996 53.559 -113.219 53.5 -113.344 C 53.441 -113.469 53.352 -113.648 53.301 -113.75 C 53.254 -113.852 53.184 -113.988 53.145 -114.063 C 53.105 -114.137 53.055 -114.238 53.027 -114.285 C 53 -114.336 52.969 -114.395 52.953 -114.418 C 52.941 -114.445 52.93 -114.465 52.93 -114.465 C 52.93 -114.465 52.941 -114.445 52.957 -114.422 C 52.969 -114.395 53.004 -114.34 53.035 -114.289 C 53.063 -114.242 53.125 -114.148 53.168 -114.078 C 53.215 -114.008 53.301 -113.875 53.359 -113.785 C 53.422 -113.691 53.535 -113.523 53.613 -113.41 C 53.691 -113.297 53.832 -113.098 53.93 -112.961 C 54.023 -112.828 54.195 -112.594 54.309 -112.438 C 54.422 -112.285 54.621 -112.02 54.75 -111.844 C 54.883 -111.672 55.109 -111.379 55.262 -111.188 C 55.414 -110.992 55.672 -110.672 55.84 -110.461 C 56.012 -110.254 56.297 -109.902 56.488 -109.68 C 56.676 -109.453 56.996 -109.078 57.203 -108.84 C 57.41 -108.598 57.762 -108.203 57.988 -107.949 C 58.219 -107.691 58.598 -107.273 58.844 -107.008 C 59.09 -106.742 59.5 -106.301 59.77 -106.023 C 60.035 -105.746 60.477 -105.289 60.758 -105 C 61.043 -104.711 61.516 -104.238 61.82 -103.938 C 62.125 -103.641 62.625 -103.156 62.945 -102.848 C 63.27 -102.543 63.801 -102.043 64.141 -101.73 C 64.477 -101.414 65.039 -100.906 65.395 -100.586 C 65.75 -100.27 66.34 -99.75 66.711 -99.426 C 67.086 -99.102 67.699 -98.582 68.09 -98.254 C 68.48 -97.926 69.117 -97.398 69.523 -97.07 C 69.93 -96.738 70.594 -96.207 71.016 -95.879 C 71.434 -95.547 72.121 -95.016 72.555 -94.684 C 72.992 -94.355 73.699 -93.824 74.145 -93.496 C 74.594 -93.164 75.32 -92.637 75.781 -92.309 C 76.242 -91.984 76.988 -91.461 77.457 -91.137 C 77.93 -90.813 78.695 -90.293 79.176 -89.977 C 79.656 -89.656 80.434 -89.145 80.926 -88.832 C 81.414 -88.516 82.207 -88.016 82.703 -87.707 C 83.203 -87.398 84.004 -86.906 84.508 -86.605 C 85.016 -86.305 85.828 -85.828 86.336 -85.531 C 86.848 -85.238 87.668 -84.773 88.18 -84.488 C 88.695 -84.199 89.52 -83.75 90.035 -83.473 C 90.551 -83.195 91.383 -82.762 91.898 -82.492 C 92.418 -82.227 93.246 -81.809 93.766 -81.551 C 94.281 -81.293 95.113 -80.891 95.629 -80.645 C 96.145 -80.398 96.973 -80.016 97.484 -79.781 C 98 -79.547 98.82 -79.18 99.328 -78.957 C 99.836 -78.734 100.652 -78.383 101.152 -78.172 C 101.656 -77.961 102.461 -77.633 102.957 -77.434 C 103.453 -77.238 104.246 -76.926 104.734 -76.742 C 105.223 -76.555 106 -76.266 106.477 -76.09 C 106.957 -75.918 107.715 -75.648 108.184 -75.484 C 108.648 -75.324 109.391 -75.074 109.848 -74.922 C 110.301 -74.773 111.02 -74.543 111.461 -74.406 C 111.902 -74.27 112.602 -74.059 113.027 -73.934 C 113.453 -73.809 114.125 -73.617 114.535 -73.504 C 114.945 -73.391 115.59 -73.219 115.984 -73.117 C 116.375 -73.012 116.992 -72.859 117.367 -72.77 C 117.742 -72.676 118.328 -72.539 118.684 -72.461 C 119.035 -72.379 119.59 -72.258 119.922 -72.191 C 120.258 -72.121 120.777 -72.016 121.09 -71.957 C 121.398 -71.895 121.883 -71.809 122.172 -71.754 C 122.461 -71.703 122.91 -71.629 123.176 -71.586 C 123.441 -71.543 123.848 -71.484 124.09 -71.449 C 124.332 -71.414 124.699 -71.363 124.918 -71.336 C 125.133 -71.309 125.461 -71.27 125.652 -71.246 C 125.844 -71.227 126.129 -71.195 126.297 -71.18 C 126.461 -71.164 126.703 -71.145 126.844 -71.133 C 126.98 -71.121 127.18 -71.109 127.293 -71.102 C 127.402 -71.094 127.559 -71.086 127.645 -71.082 C 127.727 -71.078 127.84 -71.074 127.895 -71.07 C 127.949 -71.07 128.016 -71.066 128.047 -71.066 C 128.074 -71.066 128.098 -71.066 128.098 -71.066 "/>
</g>
</g>
</g>
</g>
</svg>
