<?xml version="1.0" encoding="UTF-8" standalone="no"?>
<!DOCTYPE svg PUBLIC "-//W3C//DTD SVG 1.1//EN" "http://www.w3.org/Graphics/SVG/1.1/DTD/svg11.dtd">
<svg xmlns="http://www.w3.org/2000/svg" xmlns:xlink="http://www.w3.org/1999/xlink" version="1.1" width="254.87064pt" height="171.74112pt" viewBox="0 0 254.87064 171.74112">
<g enable-background="new">
<g>
<path d="M 175.563 167.02 L 175.195 164.238 L 174.723 161.5 L 174.125 158.805 L 173.414 156.164 L 172.59 153.586 L 171.648 151.066 L 170.605 148.609 L 169.453 146.227 L 168.207 143.922 L 166.852 141.695 L 165.414 139.547 L 163.875 137.496 L 162.25 135.531 L 160.547 133.66 L 158.758 131.891 L 156.902 130.223 L 154.965 128.656 L 152.965 127.199 L 150.91 125.859 L 148.789 124.625 L 146.621 123.512 L 144.406 122.52 L 142.145 121.648 L 139.855 120.898 L 137.527 120.281 L 135.176 119.793 L 132.809 119.426 L 130.426 119.188 L 128.039 119.098 L 125.648 119.129 L 123.262 119.305 L 120.891 119.613 L 118.531 120.043 L 116.191 120.613 L 113.875 121.301 L 111.602 122.121 L 109.367 123.055 L 107.172 124.117 L 105.035 125.293 L 102.949 126.586 L 100.922 127.988 L 98.953 129.5 L 97.059 131.125 L 95.238 132.844 L 93.496 134.672 L 91.832 136.594 L 90.258 138.609 L 88.77 140.711 L 87.379 142.898 L 86.078 145.172 L 84.879 147.523 L 83.785 149.941 L 82.797 152.434 L 81.918 154.988 L 81.152 157.602 L 80.508 160.27 L 79.969 162.984 L 79.551 165.75 L 79.402 167.047 L 79.277 167.145 L 79.012 167.344 L 78.859 167.453 L 78.715 167.559 L 78.563 167.672 L 78.387 167.785 L 78.199 167.898 L 77.996 168.016 L 77.777 168.141 L 77.566 168.266 L 77.34 168.387 L 77.102 168.512 L 76.855 168.637 L 76.605 168.762 L 76.074 169.016 L 75.789 169.141 L 75.504 169.262 L 75.203 169.387 L 74.586 169.637 L 74.258 169.746 L 73.922 169.859 L 73.57 169.977 L 73.207 170.082 L 72.836 170.188 L 72.457 170.297 L 72.07 170.395 L 71.68 170.484 L 71.27 170.582 L 70.859 170.672 L 70.434 170.762 L 69.988 170.844 L 69.543 170.914 L 69.086 170.984 L 68.613 171.051 L 68.137 171.109 L 67.66 171.164 L 67.168 171.215 L 66.66 171.25 L 66.137 171.285 L 65.617 171.313 L 65.047 171.332 L 64.465 171.344 L .391 171.348 L .445 170.039 L .625 167.266 L .867 164.52 L 1.18 161.809 L 1.559 159.145 L 2.004 156.512 L 2.508 153.934 L 3.07 151.391 L 3.695 148.902 L 4.363 146.457 L 5.086 144.066 L 5.855 141.727 L 6.672 139.441 L 7.535 137.207 L 8.441 135.035 L 9.391 132.922 L 10.375 130.867 L 11.398 128.871 L 12.445 126.934 L 13.527 125.066 L 14.633 123.258 L 15.758 121.508 L 16.91 119.832 L 18.078 118.211 L 19.262 116.656 L 20.453 115.176 L 21.652 113.758 L 22.852 112.402 L 24.055 111.129 L 25.25 109.918 L 26.438 108.77 L 27.617 107.684 L 28.785 106.672 L 29.977 105.691 L 31.332 104.625 L 32.703 103.609 L 34.07 102.648 L 35.445 101.73 L 36.82 100.867 L 38.195 100.051 L 39.57 99.273 L 40.938 98.559 L 42.301 97.879 L 43.66 97.246 L 45.008 96.664 L 46.348 96.125 L 47.68 95.633 L 49 95.18 L 50.301 94.766 L 51.59 94.379 L 52.867 94.047 L 54.125 93.75 L 55.367 93.484 L 56.582 93.254 L 57.781 93.063 L 58.969 92.918 L 60.125 92.805 L 61.258 92.715 L 62.367 92.656 L 190.938 92.625 L 191.945 92.641 L 192.992 92.68 L 194.117 92.75 L 195.266 92.848 L 196.43 92.984 L 197.621 93.156 L 198.828 93.367 L 200.055 93.613 L 201.305 93.891 L 202.57 94.219 L 203.852 94.566 L 205.148 94.957 L 206.465 95.383 L 207.785 95.863 L 209.121 96.383 L 210.469 96.949 L 211.82 97.551 L 213.18 98.203 L 214.547 98.906 L 215.918 99.648 L 217.289 100.441 L 218.664 101.277 L 220.039 102.168 L 221.414 103.109 L 222.785 104.098 L 224.148 105.137 L 225.441 106.172 L 226.602 107.156 L 227.773 108.199 L 228.961 109.313 L 230.152 110.488 L 231.352 111.73 L 232.551 113.047 L 233.75 114.426 L 234.945 115.875 L 236.137 117.391 L 237.316 118.973 L 238.473 120.617 L 239.613 122.328 L 240.73 124.105 L 241.828 125.945 L 242.895 127.848 L 243.93 129.809 L 244.938 131.836 L 245.902 133.914 L 246.832 136.063 L 247.723 138.262 L 248.566 140.516 L 249.367 142.832 L 250.113 145.191 L 250.813 147.609 L 251.465 150.078 L 252.063 152.586 L 252.602 155.148 L 253.074 157.754 L 253.492 160.398 L 253.84 163.086 L 254.121 165.809 L 254.332 168.566 L 254.477 171.367 L 190.965 171.367 L 190.074 171.355 L 189.629 171.34 L 189.207 171.324 L 188.816 171.305 L 188.418 171.281 L 188.031 171.25 L 187.648 171.219 L 187.266 171.18 L 186.527 171.094 L 186.168 171.051 L 185.805 171 L 185.453 170.941 L 185.117 170.887 L 184.773 170.828 L 184.441 170.762 L 184.117 170.699 L 183.789 170.629 L 183.48 170.555 L 183.172 170.492 L 182.863 170.414 L 182.563 170.344 L 182.273 170.273 L 181.98 170.191 L 181.703 170.105 L 181.422 170.023 L 181.156 169.938 L 180.891 169.844 L 180.617 169.758 L 180.367 169.664 L 180.129 169.578 L 179.883 169.488 L 179.645 169.398 L 179.418 169.309 L 179.195 169.215 L 178.977 169.117 L 178.766 169.023 L 178.547 168.926 L 178.348 168.836 L 178.145 168.734 L 177.957 168.645 L 177.77 168.547 L 177.586 168.453 L 177.414 168.355 L 177.262 168.27 L 177.102 168.176 L 176.809 168.004 L 176.664 167.91 L 176.523 167.824 L 176.398 167.73 L 176.273 167.645 L 176.145 167.551 L 176.031 167.469 L 175.926 167.391 L 175.816 167.301 L 175.719 167.223 L 175.531 167.078 Z M 175.563 167.02 " fill="#ff8080"/>
<path stroke-width=".751181" stroke-linecap="butt" stroke-miterlimit="4" stroke-linejoin="miter" fill="none" stroke="#000000" d="M 175.563 167.02 L 175.195 164.238 L 174.723 161.5 L 174.125 158.805 L 173.414 156.164 L 172.59 153.586 L 171.648 151.066 L 170.605 148.609 L 169.453 146.227 L 168.207 143.922 L 166.852 141.695 L 165.414 139.547 L 163.875 137.496 L 162.25 135.531 L 160.547 133.66 L 158.758 131.891 L 156.902 130.223 L 154.965 128.656 L 152.965 127.199 L 150.91 125.859 L 148.789 124.625 L 146.621 123.512 L 144.406 122.52 L 142.145 121.648 L 139.855 120.898 L 137.527 120.281 L 135.176 119.793 L 132.809 119.426 L 130.426 119.188 L 128.039 119.098 L 125.648 119.129 L 123.262 119.305 L 120.891 119.613 L 118.531 120.043 L 116.191 120.613 L 113.875 121.301 L 111.602 122.121 L 109.367 123.055 L 107.172 124.117 L 105.035 125.293 L 102.949 126.586 L 100.922 127.988 L 98.953 129.5 L 97.059 131.125 L 95.238 132.844 L 93.496 134.672 L 91.832 136.594 L 90.258 138.609 L 88.77 140.711 L 87.379 142.898 L 86.078 145.172 L 84.879 147.523 L 83.785 149.941 L 82.797 152.434 L 81.918 154.988 L 81.152 157.602 L 80.508 160.27 L 79.969 162.984 L 79.551 165.75 L 79.402 167.047 L 79.277 167.145 L 79.012 167.344 L 78.859 167.453 L 78.715 167.559 L 78.563 167.672 L 78.387 167.785 L 78.199 167.898 L 77.996 168.016 L 77.777 168.141 L 77.566 168.266 L 77.34 168.387 L 77.102 168.512 L 76.855 168.637 L 76.605 168.762 L 76.074 169.016 L 75.789 169.141 L 75.504 169.262 L 75.203 169.387 L 74.586 169.637 L 74.258 169.746 L 73.922 169.859 L 73.57 169.977 L 73.207 170.082 L 72.836 170.188 L 72.457 170.297 L 72.07 170.395 L 71.68 170.484 L 71.27 170.582 L 70.859 170.672 L 70.434 170.762 L 69.988 170.844 L 69.543 170.914 L 69.086 170.984 L 68.613 171.051 L 68.137 171.109 L 67.66 171.164 L 67.168 171.215 L 66.66 171.25 L 66.137 171.285 L 65.617 171.313 L 65.047 171.332 L 64.465 171.344 L .391 171.348 L .445 170.039 L .625 167.266 L .867 164.52 L 1.18 161.809 L 1.559 159.145 L 2.004 156.512 L 2.508 153.934 L 3.07 151.391 L 3.695 148.902 L 4.363 146.457 L 5.086 144.066 L 5.855 141.727 L 6.672 139.441 L 7.535 137.207 L 8.441 135.035 L 9.391 132.922 L 10.375 130.867 L 11.398 128.871 L 12.445 126.934 L 13.527 125.066 L 14.633 123.258 L 15.758 121.508 L 16.91 119.832 L 18.078 118.211 L 19.262 116.656 L 20.453 115.176 L 21.652 113.758 L 22.852 112.402 L 24.055 111.129 L 25.25 109.918 L 26.438 108.77 L 27.617 107.684 L 28.785 106.672 L 29.977 105.691 L 31.332 104.625 L 32.703 103.609 L 34.07 102.648 L 35.445 101.73 L 36.82 100.867 L 38.195 100.051 L 39.57 99.273 L 40.938 98.559 L 42.301 97.879 L 43.66 97.246 L 45.008 96.664 L 46.348 96.125 L 47.68 95.633 L 49 95.18 L 50.301 94.766 L 51.59 94.379 L 52.867 94.047 L 54.125 93.75 L 55.367 93.484 L 56.582 93.254 L 57.781 93.063 L 58.969 92.918 L 60.125 92.805 L 61.258 92.715 L 62.367 92.656 L 190.938 92.625 L 191.945 92.641 L 192.992 92.68 L 194.117 92.75 L 195.266 92.848 L 196.43 92.984 L 197.621 93.156 L 198.828 93.367 L 200.055 93.613 L 201.305 93.891 L 202.57 94.219 L 203.852 94.566 L 205.148 94.957 L 206.465 95.383 L 207.785 95.863 L 209.121 96.383 L 210.469 96.949 L 211.82 97.551 L 213.18 98.203 L 214.547 98.906 L 215.918 99.648 L 217.289 100.441 L 218.664 101.277 L 220.039 102.168 L 221.414 103.109 L 222.785 104.098 L 224.148 105.137 L 225.441 106.172 L 226.602 107.156 L 227.773 108.199 L 228.961 109.313 L 230.152 110.488 L 231.352 111.73 L 232.551 113.047 L 233.75 114.426 L 234.945 115.875 L 236.137 117.391 L 237.316 118.973 L 238.473 120.617 L 239.613 122.328 L 240.73 124.105 L 241.828 125.945 L 242.895 127.848 L 243.93 129.809 L 244.938 131.836 L 245.902 133.914 L 246.832 136.063 L 247.723 138.262 L 248.566 140.516 L 249.367 142.832 L 250.113 145.191 L 250.813 147.609 L 251.465 150.078 L 252.063 152.586 L 252.602 155.148 L 253.074 157.754 L 253.492 160.398 L 253.84 163.086 L 254.121 165.809 L 254.332 168.566 L 254.477 171.367 L 190.965 171.367 L 190.074 171.355 L 189.629 171.34 L 189.207 171.324 L 188.816 171.305 L 188.418 171.281 L 188.031 171.25 L 187.648 171.219 L 187.266 171.18 L 186.527 171.094 L 186.168 171.051 L 185.805 171 L 185.453 170.941 L 185.117 170.887 L 184.773 170.828 L 184.441 170.762 L 184.117 170.699 L 183.789 170.629 L 183.48 170.555 L 183.172 170.492 L 182.863 170.414 L 182.563 170.344 L 182.273 170.273 L 181.98 170.191 L 181.703 170.105 L 181.422 170.023 L 181.156 169.938 L 180.891 169.844 L 180.617 169.758 L 180.367 169.664 L 180.129 169.578 L 179.883 169.488 L 179.645 169.398 L 179.418 169.309 L 179.195 169.215 L 178.977 169.117 L 178.766 169.023 L 178.547 168.926 L 178.348 168.836 L 178.145 168.734 L 177.957 168.645 L 177.77 168.547 L 177.586 168.453 L 177.414 168.355 L 177.262 168.27 L 177.102 168.176 L 176.809 168.004 L 176.664 167.91 L 176.523 167.824 L 176.398 167.73 L 176.273 167.645 L 176.145 167.551 L 176.031 167.469 L 175.926 167.391 L 175.816 167.301 L 175.719 167.223 L 175.531 167.078 Z M 175.563 167.02 "/>
<path d="M 253.855 79.113 C 253.855 79.113 253.848 77.988 253.844 77.555 C 253.836 77.121 253.82 76.426 253.805 75.992 C 253.789 75.563 253.766 74.867 253.742 74.438 C 253.723 74.004 253.684 73.313 253.656 72.883 C 253.629 72.453 253.582 71.762 253.547 71.332 C 253.512 70.902 253.453 70.219 253.41 69.789 C 253.371 69.363 253.301 68.676 253.254 68.25 C 253.203 67.824 253.121 67.145 253.07 66.723 C 253.016 66.297 252.922 65.621 252.863 65.199 C 252.801 64.777 252.699 64.105 252.633 63.688 C 252.566 63.27 252.453 62.602 252.379 62.188 C 252.309 61.77 252.184 61.105 252.105 60.695 C 252.027 60.285 251.895 59.625 251.809 59.219 C 251.723 58.809 251.582 58.16 251.488 57.754 C 251.398 57.348 251.246 56.703 251.148 56.305 C 251.055 55.902 250.891 55.266 250.789 54.867 C 250.688 54.473 250.516 53.84 250.41 53.449 C 250.301 53.059 250.121 52.434 250.008 52.047 C 249.895 51.66 249.711 51.043 249.59 50.66 C 249.473 50.277 249.277 49.668 249.152 49.293 C 249.031 48.914 248.828 48.316 248.699 47.945 C 248.57 47.57 248.359 46.98 248.227 46.613 C 248.094 46.246 247.875 45.664 247.738 45.301 C 247.602 44.941 247.375 44.367 247.234 44.012 C 247.09 43.656 246.859 43.094 246.715 42.742 C 246.566 42.395 246.328 41.84 246.18 41.496 C 246.027 41.152 245.785 40.605 245.629 40.266 C 245.477 39.93 245.227 39.395 245.066 39.063 C 244.91 38.73 244.652 38.203 244.492 37.879 C 244.332 37.555 244.07 37.035 243.906 36.719 C 243.742 36.398 243.477 35.891 243.309 35.578 C 243.141 35.266 242.867 34.77 242.699 34.465 C 242.527 34.156 242.25 33.668 242.078 33.371 C 241.906 33.07 241.625 32.594 241.449 32.301 C 241.273 32.004 240.988 31.539 240.809 31.25 C 240.633 30.965 240.344 30.508 240.164 30.227 C 239.98 29.945 239.691 29.5 239.508 29.223 C 239.324 28.949 239.031 28.512 238.844 28.246 C 238.66 27.977 238.359 27.551 238.172 27.285 C 237.988 27.023 237.684 26.609 237.496 26.352 C 237.309 26.094 237.004 25.688 236.813 25.438 C 236.621 25.188 236.316 24.793 236.125 24.547 C 235.934 24.305 235.621 23.914 235.43 23.676 C 235.234 23.438 234.926 23.063 234.73 22.828 C 234.535 22.598 234.219 22.227 234.023 22 C 233.828 21.773 233.512 21.418 233.313 21.195 C 233.117 20.973 232.797 20.625 232.598 20.41 C 232.398 20.191 232.078 19.852 231.879 19.645 C 231.68 19.434 231.355 19.102 231.156 18.895 C 230.953 18.691 230.629 18.367 230.426 18.168 C 230.227 17.969 229.898 17.652 229.695 17.461 C 229.492 17.266 229.164 16.957 228.961 16.77 C 228.754 16.578 228.426 16.281 228.219 16.094 C 228.016 15.91 227.684 15.621 227.477 15.441 C 227.27 15.262 226.938 14.977 226.727 14.801 C 226.52 14.629 226.184 14.352 225.973 14.18 C 225.766 14.012 225.43 13.742 225.219 13.574 C 225.008 13.41 224.668 13.148 224.457 12.988 C 224.246 12.824 223.902 12.57 223.688 12.414 C 223.477 12.254 223.133 12.008 222.918 11.855 C 222.703 11.699 222.355 11.457 222.141 11.309 C 221.926 11.16 221.574 10.926 221.359 10.781 C 221.141 10.637 220.789 10.406 220.57 10.266 C 220.352 10.125 219.996 9.898 219.773 9.762 C 219.555 9.625 219.195 9.406 218.973 9.273 C 218.75 9.141 218.391 8.93 218.164 8.797 C 217.938 8.668 217.574 8.461 217.348 8.336 C 217.121 8.207 216.754 8.008 216.523 7.887 C 216.297 7.762 215.926 7.57 215.691 7.449 C 215.461 7.328 215.086 7.141 214.852 7.023 C 214.617 6.906 214.238 6.723 214 6.609 C 213.766 6.496 213.383 6.32 213.141 6.211 C 212.902 6.102 212.516 5.926 212.273 5.82 C 212.027 5.715 211.637 5.547 211.391 5.445 C 211.145 5.34 210.75 5.18 210.5 5.078 C 210.25 4.98 209.852 4.82 209.598 4.727 C 209.348 4.629 208.938 4.477 208.684 4.387 C 208.43 4.293 208.016 4.145 207.758 4.055 C 207.496 3.965 207.078 3.824 206.816 3.738 C 206.555 3.652 206.133 3.516 205.863 3.434 C 205.598 3.352 205.168 3.223 204.898 3.141 C 204.629 3.063 204.191 2.938 203.918 2.863 C 203.645 2.789 203.203 2.668 202.926 2.598 C 202.648 2.523 202.199 2.41 201.918 2.344 C 201.633 2.273 201.18 2.168 200.891 2.105 C 200.605 2.039 200.145 1.938 199.855 1.879 C 199.563 1.816 199.094 1.723 198.801 1.668 C 198.504 1.609 198.031 1.523 197.73 1.469 C 197.434 1.418 196.949 1.336 196.648 1.285 C 196.344 1.238 195.855 1.164 195.547 1.121 C 195.238 1.074 194.742 1.008 194.43 .969 C 194.117 .93 193.613 .867 193.297 .832 C 192.98 .797 192.469 .746 192.148 .715 C 191.828 .684 191.309 .637 190.984 .613 C 190.66 .586 190.133 .547 189.805 .527 C 189.473 .508 188.941 .477 188.609 .461 C 188.273 .445 187.734 .426 187.398 .414 C 187.059 .402 186.512 .387 186.172 .383 C 185.828 .379 182.277 .375 182.277 .375 L 71.41 .375 C 71.41 .375 69.043 .379 68.699 .383 C 68.359 .391 67.813 .402 67.473 .414 C 67.137 .426 66.598 .445 66.262 .461 C 65.93 .48 65.395 .508 65.066 .527 C 64.738 .547 64.211 .586 63.887 .613 C 63.563 .637 63.043 .684 62.723 .715 C 62.402 .746 61.891 .797 61.574 .832 C 61.258 .867 60.754 .93 60.441 .969 C 60.129 1.008 59.633 1.074 59.324 1.121 C 59.016 1.164 58.527 1.238 58.223 1.285 C 57.922 1.336 57.438 1.418 57.141 1.469 C 56.84 1.523 56.363 1.609 56.07 1.668 C 55.777 1.723 55.305 1.816 55.016 1.879 C 54.727 1.938 54.266 2.039 53.977 2.105 C 53.691 2.168 53.238 2.273 52.953 2.344 C 52.672 2.41 52.223 2.523 51.945 2.598 C 51.668 2.668 51.227 2.789 50.953 2.863 C 50.68 2.938 50.242 3.063 49.973 3.141 C 49.703 3.223 49.273 3.352 49.004 3.434 C 48.738 3.516 48.316 3.652 48.055 3.738 C 47.793 3.824 47.371 3.965 47.113 4.055 C 46.855 4.145 46.441 4.293 46.188 4.387 C 45.93 4.477 45.523 4.629 45.273 4.727 C 45.02 4.824 44.617 4.98 44.371 5.078 C 44.121 5.18 43.723 5.34 43.48 5.445 C 43.234 5.547 42.84 5.715 42.598 5.82 C 42.355 5.926 41.969 6.102 41.727 6.211 C 41.488 6.32 41.105 6.496 40.871 6.609 C 40.633 6.723 40.254 6.906 40.02 7.023 C 39.785 7.141 39.41 7.328 39.18 7.449 C 38.945 7.57 38.574 7.762 38.344 7.887 C 38.117 8.008 37.75 8.207 37.523 8.336 C 37.293 8.461 36.93 8.668 36.707 8.797 C 36.48 8.93 36.121 9.141 35.898 9.273 C 35.676 9.406 35.316 9.625 35.098 9.762 C 34.875 9.898 34.52 10.125 34.301 10.266 C 34.082 10.406 33.73 10.637 33.512 10.781 C 33.293 10.926 32.945 11.16 32.73 11.309 C 32.512 11.457 32.168 11.699 31.953 11.855 C 31.738 12.008 31.395 12.254 31.18 12.414 C 30.969 12.57 30.625 12.824 30.414 12.988 C 30.203 13.148 29.863 13.41 29.652 13.574 C 29.441 13.742 29.105 14.012 28.895 14.18 C 28.688 14.352 28.352 14.629 28.145 14.801 C 27.934 14.977 27.602 15.262 27.395 15.441 C 27.188 15.621 26.855 15.91 26.648 16.094 C 26.445 16.281 26.117 16.578 25.91 16.77 C 25.707 16.957 25.379 17.266 25.176 17.461 C 24.973 17.652 24.645 17.969 24.441 18.168 C 24.242 18.367 23.918 18.691 23.715 18.895 C 23.516 19.102 23.191 19.434 22.992 19.645 C 22.793 19.852 22.473 20.191 22.273 20.41 C 22.074 20.625 21.754 20.973 21.559 21.195 C 21.359 21.418 21.043 21.773 20.848 22 C 20.652 22.227 20.336 22.598 20.141 22.828 C 19.945 23.063 19.637 23.438 19.441 23.676 C 19.246 23.914 18.938 24.305 18.746 24.547 C 18.555 24.793 18.246 25.188 18.059 25.438 C 17.867 25.688 17.563 26.094 17.375 26.352 C 17.184 26.609 16.883 27.023 16.695 27.285 C 16.508 27.551 16.211 27.977 16.027 28.246 C 15.84 28.512 15.547 28.949 15.363 29.223 C 15.18 29.5 14.887 29.945 14.707 30.227 C 14.527 30.508 14.238 30.965 14.059 31.25 C 13.883 31.539 13.598 32.004 13.422 32.301 C 13.246 32.594 12.965 33.07 12.793 33.371 C 12.617 33.668 12.344 34.156 12.172 34.465 C 12 34.77 11.73 35.266 11.563 35.578 C 11.395 35.891 11.129 36.398 10.965 36.719 C 10.801 37.035 10.539 37.555 10.379 37.879 C 10.215 38.203 9.961 38.73 9.805 39.063 C 9.645 39.395 9.395 39.93 9.242 40.266 C 9.086 40.605 8.844 41.152 8.691 41.496 C 8.543 41.84 8.305 42.395 8.156 42.742 C 8.012 43.094 7.781 43.656 7.637 44.012 C 7.496 44.367 7.27 44.941 7.133 45.301 C 6.996 45.664 6.777 46.246 6.645 46.613 C 6.512 46.98 6.301 47.57 6.172 47.945 C 6.043 48.316 5.84 48.914 5.719 49.293 C 5.594 49.668 5.398 50.277 5.281 50.66 C 5.16 51.043 4.977 51.66 4.859 52.047 C 4.746 52.434 4.57 53.059 4.461 53.449 C 4.352 53.84 4.184 54.473 4.082 54.867 C 3.977 55.266 3.816 55.902 3.719 56.305 C 3.625 56.703 3.473 57.348 3.379 57.754 C 3.289 58.16 3.148 58.809 3.063 59.219 C 2.977 59.625 2.844 60.285 2.766 60.695 C 2.688 61.105 2.563 61.77 2.488 62.188 C 2.418 62.602 2.305 63.27 2.238 63.688 C 2.172 64.105 2.07 64.777 2.008 65.199 C 1.949 65.621 1.855 66.297 1.801 66.723 C 1.746 67.145 1.668 67.824 1.617 68.25 C 1.57 68.676 1.5 69.363 1.461 69.789 C 1.418 70.219 1.359 70.902 1.324 71.332 C 1.289 71.762 1.242 72.453 1.215 72.883 C 1.184 73.313 1.148 74.004 1.125 74.438 C 1.105 74.867 1.078 75.563 1.066 75.996 C 1.051 76.426 1.035 77.121 1.027 77.555 C 1.023 77.988 1.016 79.113 1.016 79.113 L 68.418 79.113 L 69.945 79.113 C 69.953 79.113 69.961 79.113 69.969 79.113 C 69.977 79.113 69.996 79.113 70.008 79.113 C 70.02 79.113 70.043 79.109 70.059 79.109 C 70.074 79.109 70.105 79.105 70.125 79.105 C 70.145 79.102 70.18 79.098 70.203 79.098 C 70.227 79.098 70.27 79.094 70.297 79.086 C 70.328 79.086 70.375 79.078 70.406 79.074 C 70.438 79.074 70.492 79.063 70.527 79.059 C 70.563 79.055 70.625 79.043 70.664 79.039 C 70.703 79.031 70.766 79.023 70.809 79.012 C 70.852 79.004 70.922 78.992 70.969 78.984 C 71.016 78.977 71.09 78.957 71.141 78.949 C 71.191 78.938 71.27 78.922 71.324 78.91 C 71.375 78.898 71.461 78.879 71.516 78.867 C 71.57 78.852 71.66 78.828 71.719 78.813 C 71.777 78.801 71.871 78.773 71.934 78.758 C 71.992 78.738 72.09 78.711 72.152 78.695 C 72.215 78.672 72.316 78.645 72.383 78.625 C 72.449 78.605 72.555 78.57 72.621 78.547 C 72.688 78.523 72.797 78.488 72.863 78.465 C 72.934 78.441 73.043 78.402 73.113 78.375 C 73.188 78.352 73.301 78.309 73.371 78.281 C 73.445 78.254 73.559 78.207 73.633 78.18 C 73.707 78.148 73.824 78.102 73.898 78.07 C 73.973 78.039 74.09 77.988 74.164 77.957 C 74.238 77.922 74.359 77.867 74.438 77.836 C 74.512 77.801 74.633 77.742 74.707 77.707 C 74.785 77.672 74.906 77.613 74.984 77.574 C 75.059 77.535 75.18 77.477 75.258 77.438 C 75.332 77.398 75.453 77.332 75.531 77.293 C 75.605 77.25 75.727 77.184 75.805 77.145 C 75.879 77.102 76 77.031 76.074 76.988 C 76.148 76.945 76.27 76.875 76.344 76.832 C 76.414 76.789 76.535 76.715 76.605 76.672 C 76.68 76.625 76.797 76.551 76.867 76.504 C 76.941 76.461 77.055 76.383 77.125 76.336 C 77.195 76.289 77.309 76.215 77.379 76.168 C 77.445 76.117 77.559 76.043 77.625 75.996 C 77.691 75.945 77.801 75.867 77.863 75.82 C 77.93 75.773 78.035 75.695 78.098 75.645 C 78.16 75.598 78.262 75.52 78.324 75.469 C 78.387 75.422 78.484 75.344 78.543 75.293 C 78.602 75.246 78.695 75.168 78.754 75.121 C 78.813 75.074 78.902 74.996 78.957 74.949 C 79.012 74.902 79.098 74.824 79.148 74.777 C 79.203 74.73 79.285 74.656 79.336 74.609 C 79.383 74.563 79.461 74.492 79.508 74.445 C 79.555 74.402 79.629 74.328 79.676 74.285 C 79.719 74.242 79.789 74.172 79.832 74.129 C 79.871 74.086 79.938 74.02 79.977 73.98 C 80.016 73.938 80.074 73.875 80.125 73.145 C 80.195 72 80.289 71.262 80.355 70.805 C 80.422 70.348 80.539 69.617 80.617 69.164 C 80.699 68.707 80.836 67.98 80.93 67.531 C 81.02 67.078 81.18 66.355 81.285 65.906 C 81.391 65.461 81.57 64.742 81.688 64.301 C 81.805 63.855 82.008 63.145 82.137 62.707 C 82.27 62.266 82.488 61.563 82.633 61.129 C 82.773 60.695 83.016 60 83.172 59.57 C 83.328 59.141 83.586 58.453 83.758 58.031 C 83.926 57.605 84.203 56.93 84.387 56.512 C 84.566 56.094 84.863 55.43 85.059 55.02 C 85.25 54.605 85.566 53.953 85.77 53.547 C 85.977 53.145 86.313 52.5 86.527 52.102 C 86.742 51.707 87.098 51.074 87.324 50.684 C 87.551 50.297 87.926 49.676 88.164 49.297 C 88.402 48.914 88.793 48.309 89.043 47.938 C 89.289 47.563 89.699 46.973 89.957 46.609 C 90.215 46.242 90.641 45.668 90.91 45.313 C 91.18 44.957 91.621 44.398 91.902 44.051 C 92.184 43.707 92.641 43.16 92.93 42.824 C 93.219 42.492 93.691 41.961 93.988 41.637 C 94.289 41.313 94.777 40.801 95.086 40.484 C 95.395 40.172 95.895 39.676 96.211 39.371 C 96.531 39.07 97.047 38.594 97.371 38.301 C 97.695 38.008 98.227 37.551 98.563 37.27 C 98.895 36.988 99.438 36.547 99.777 36.281 C 100.121 36.012 100.676 35.59 101.023 35.332 C 101.375 35.078 101.941 34.676 102.297 34.43 C 102.656 34.188 103.23 33.805 103.594 33.574 C 103.961 33.344 104.547 32.98 104.918 32.762 C 105.289 32.543 105.887 32.203 106.262 31.996 C 106.641 31.793 107.246 31.473 107.629 31.281 C 108.012 31.09 108.629 30.789 109.016 30.613 C 109.402 30.434 110.027 30.156 110.418 29.992 C 110.813 29.824 111.445 29.574 111.84 29.422 C 112.238 29.27 112.879 29.039 113.277 28.898 C 113.68 28.762 114.324 28.555 114.73 28.43 C 115.137 28.309 115.785 28.121 116.195 28.012 C 116.602 27.902 117.258 27.738 117.672 27.645 C 118.082 27.547 118.742 27.406 119.156 27.328 C 119.57 27.246 120.234 27.129 120.648 27.063 C 121.066 26.996 121.734 26.902 122.152 26.852 C 122.566 26.801 123.238 26.73 123.656 26.695 C 124.074 26.656 124.746 26.609 125.168 26.59 C 125.586 26.566 126.258 26.543 126.68 26.535 C 127.098 26.527 127.773 26.527 128.191 26.535 C 128.613 26.543 129.285 26.566 129.703 26.59 C 130.121 26.609 130.797 26.656 131.215 26.695 C 131.633 26.73 132.301 26.801 132.719 26.852 C 133.137 26.902 133.805 26.996 134.219 27.063 C 134.637 27.129 135.301 27.246 135.715 27.328 C 136.129 27.406 136.789 27.547 137.199 27.645 C 137.609 27.738 138.27 27.902 138.676 28.012 C 139.086 28.121 139.734 28.305 140.141 28.43 C 140.543 28.555 141.191 28.762 141.594 28.898 C 141.992 29.039 142.633 29.27 143.027 29.422 C 143.426 29.574 144.059 29.828 144.449 29.992 C 144.844 30.156 145.469 30.434 145.855 30.613 C 146.242 30.789 146.859 31.09 147.242 31.281 C 147.625 31.473 148.23 31.793 148.609 31.996 C 148.984 32.203 149.582 32.543 149.953 32.762 C 150.324 32.98 150.91 33.344 151.273 33.574 C 151.637 33.805 152.215 34.188 152.574 34.43 C 152.93 34.676 153.496 35.078 153.844 35.332 C 154.195 35.59 154.75 36.012 155.09 36.281 C 155.434 36.547 155.977 36.988 156.309 37.27 C 156.645 37.551 157.172 38.008 157.5 38.301 C 157.824 38.594 158.34 39.07 158.66 39.371 C 158.977 39.676 159.477 40.172 159.785 40.484 C 160.094 40.801 160.582 41.313 160.879 41.637 C 161.18 41.961 161.652 42.492 161.941 42.824 C 162.23 43.16 162.688 43.707 162.969 44.051 C 163.25 44.398 163.688 44.957 163.961 45.313 C 164.23 45.668 164.652 46.242 164.914 46.609 C 165.172 46.973 165.582 47.563 165.828 47.938 C 166.078 48.309 166.469 48.914 166.707 49.297 C 166.945 49.676 167.316 50.297 167.543 50.684 C 167.773 51.074 168.125 51.707 168.344 52.102 C 168.559 52.5 168.895 53.145 169.098 53.547 C 169.305 53.953 169.621 54.605 169.813 55.02 C 170.004 55.43 170.305 56.094 170.484 56.512 C 170.664 56.93 170.945 57.605 171.113 58.031 C 171.281 58.453 171.543 59.141 171.699 59.57 C 171.855 60 172.094 60.695 172.238 61.129 C 172.383 61.563 172.602 62.266 172.734 62.707 C 172.863 63.145 173.066 63.855 173.184 64.301 C 173.301 64.742 173.48 65.461 173.586 65.906 C 173.691 66.355 173.852 67.078 173.941 67.531 C 174.035 67.98 174.172 68.707 174.254 69.164 C 174.332 69.617 174.449 70.348 174.516 70.805 C 174.582 71.262 174.676 72 174.742 73.145 C 174.793 73.875 174.855 73.938 174.895 73.98 C 174.934 74.02 174.996 74.09 175.039 74.129 C 175.082 74.172 175.152 74.242 175.195 74.285 C 175.238 74.332 175.313 74.402 175.359 74.445 C 175.406 74.492 175.484 74.566 175.535 74.609 C 175.586 74.656 175.668 74.73 175.719 74.777 C 175.773 74.824 175.859 74.902 175.914 74.949 C 175.969 74.996 176.059 75.074 176.117 75.121 C 176.172 75.168 176.266 75.246 176.328 75.297 C 176.387 75.344 176.484 75.422 176.547 75.469 C 176.605 75.52 176.707 75.598 176.773 75.645 C 176.836 75.695 176.941 75.773 177.004 75.82 C 177.07 75.867 177.176 75.945 177.246 75.996 C 177.313 76.043 177.422 76.117 177.492 76.168 C 177.563 76.215 177.672 76.289 177.742 76.336 C 177.813 76.383 177.93 76.461 178 76.504 C 178.074 76.551 178.188 76.625 178.262 76.672 C 178.336 76.715 178.453 76.789 178.527 76.832 C 178.602 76.875 178.723 76.945 178.797 76.988 C 178.871 77.031 178.992 77.102 179.066 77.145 C 179.141 77.184 179.262 77.25 179.34 77.293 C 179.414 77.332 179.535 77.398 179.613 77.438 C 179.688 77.477 179.813 77.535 179.887 77.574 C 179.965 77.613 180.086 77.672 180.16 77.707 C 180.238 77.742 180.359 77.801 180.434 77.836 C 180.508 77.867 180.629 77.922 180.703 77.957 C 180.781 77.988 180.898 78.039 180.973 78.07 C 181.047 78.102 181.164 78.148 181.238 78.18 C 181.309 78.207 181.426 78.254 181.496 78.281 C 181.57 78.309 181.684 78.352 181.754 78.375 C 181.824 78.402 181.938 78.441 182.004 78.465 C 182.074 78.488 182.184 78.527 182.25 78.547 C 182.316 78.57 182.422 78.605 182.488 78.625 C 182.551 78.645 182.652 78.676 182.715 78.691 C 182.781 78.711 182.879 78.738 182.938 78.754 C 182.996 78.773 183.094 78.797 183.152 78.813 C 183.207 78.828 183.297 78.852 183.355 78.863 C 183.41 78.879 183.496 78.898 183.547 78.91 C 183.598 78.922 183.68 78.938 183.73 78.949 C 183.777 78.961 183.855 78.973 183.898 78.984 C 183.945 78.992 184.02 79.008 184.059 79.012 C 184.102 79.02 184.168 79.031 184.207 79.039 C 184.246 79.043 184.305 79.051 184.34 79.059 C 184.375 79.063 184.43 79.07 184.465 79.074 C 184.496 79.078 184.543 79.082 184.57 79.086 C 184.602 79.09 184.645 79.094 184.664 79.098 C 184.691 79.102 184.727 79.102 184.746 79.102 C 184.766 79.105 184.793 79.105 184.813 79.109 C 184.828 79.109 184.852 79.109 184.863 79.113 C 184.875 79.113 184.891 79.113 184.898 79.113 C 184.91 79.113 184.918 79.113 184.922 79.113 C 184.926 79.113 184.93 79.113 184.93 79.113 L 253.855 79.113 " fill="#80e5ff"/>
<path stroke-width=".751181" stroke-linecap="round" stroke-linejoin="round" fill="none" stroke="#000000" d="M 253.855 79.113 C 253.855 79.113 253.848 77.988 253.844 77.555 C 253.836 77.121 253.82 76.426 253.805 75.992 C 253.789 75.563 253.766 74.867 253.742 74.438 C 253.723 74.004 253.684 73.313 253.656 72.883 C 253.629 72.453 253.582 71.762 253.547 71.332 C 253.512 70.902 253.453 70.219 253.41 69.789 C 253.371 69.363 253.301 68.676 253.254 68.25 C 253.203 67.824 253.121 67.145 253.07 66.723 C 253.016 66.297 252.922 65.621 252.863 65.199 C 252.801 64.777 252.699 64.105 252.633 63.688 C 252.566 63.27 252.453 62.602 252.379 62.188 C 252.309 61.77 252.184 61.105 252.105 60.695 C 252.027 60.285 251.895 59.625 251.809 59.219 C 251.723 58.809 251.582 58.16 251.488 57.754 C 251.398 57.348 251.246 56.703 251.148 56.305 C 251.055 55.902 250.891 55.266 250.789 54.867 C 250.688 54.473 250.516 53.84 250.41 53.449 C 250.301 53.059 250.121 52.434 250.008 52.047 C 249.895 51.66 249.711 51.043 249.59 50.66 C 249.473 50.277 249.277 49.668 249.152 49.293 C 249.031 48.914 248.828 48.316 248.699 47.945 C 248.57 47.57 248.359 46.98 248.227 46.613 C 248.094 46.246 247.875 45.664 247.738 45.301 C 247.602 44.941 247.375 44.367 247.234 44.012 C 247.09 43.656 246.859 43.094 246.715 42.742 C 246.566 42.395 246.328 41.84 246.18 41.496 C 246.027 41.152 245.785 40.605 245.629 40.266 C 245.477 39.93 245.227 39.395 245.066 39.063 C 244.91 38.73 244.652 38.203 244.492 37.879 C 244.332 37.555 244.07 37.035 243.906 36.719 C 243.742 36.398 243.477 35.891 243.309 35.578 C 243.141 35.266 242.867 34.77 242.699 34.465 C 242.527 34.156 242.25 33.668 242.078 33.371 C 241.906 33.07 241.625 32.594 241.449 32.301 C 241.273 32.004 240.988 31.539 240.809 31.25 C 240.633 30.965 240.344 30.508 240.164 30.227 C 239.98 29.945 239.691 29.5 239.508 29.223 C 239.324 28.949 239.031 28.512 238.844 28.246 C 238.66 27.977 238.359 27.551 238.172 27.285 C 237.988 27.023 237.684 26.609 237.496 26.352 C 237.309 26.094 237.004 25.688 236.813 25.438 C 236.621 25.188 236.316 24.793 236.125 24.547 C 235.934 24.305 235.621 23.914 235.43 23.676 C 235.234 23.438 234.926 23.063 234.73 22.828 C 234.535 22.598 234.219 22.227 234.023 22 C 233.828 21.773 233.512 21.418 233.313 21.195 C 233.117 20.973 232.797 20.625 232.598 20.41 C 232.398 20.191 232.078 19.852 231.879 19.645 C 231.68 19.434 231.355 19.102 231.156 18.895 C 230.953 18.691 230.629 18.367 230.426 18.168 C 230.227 17.969 229.898 17.652 229.695 17.461 C 229.492 17.266 229.164 16.957 228.961 16.77 C 228.754 16.578 228.426 16.281 228.219 16.094 C 228.016 15.91 227.684 15.621 227.477 15.441 C 227.27 15.262 226.938 14.977 226.727 14.801 C 226.52 14.629 226.184 14.352 225.973 14.18 C 225.766 14.012 225.43 13.742 225.219 13.574 C 225.008 13.41 224.668 13.148 224.457 12.988 C 224.246 12.824 223.902 12.57 223.688 12.414 C 223.477 12.254 223.133 12.008 222.918 11.855 C 222.703 11.699 222.355 11.457 222.141 11.309 C 221.926 11.16 221.574 10.926 221.359 10.781 C 221.141 10.637 220.789 10.406 220.57 10.266 C 220.352 10.125 219.996 9.898 219.773 9.762 C 219.555 9.625 219.195 9.406 218.973 9.273 C 218.75 9.141 218.391 8.93 218.164 8.797 C 217.938 8.668 217.574 8.461 217.348 8.336 C 217.121 8.207 216.754 8.008 216.523 7.887 C 216.297 7.762 215.926 7.57 215.691 7.449 C 215.461 7.328 215.086 7.141 214.852 7.023 C 214.617 6.906 214.238 6.723 214 6.609 C 213.766 6.496 213.383 6.32 213.141 6.211 C 212.902 6.102 212.516 5.926 212.273 5.82 C 212.027 5.715 211.637 5.547 211.391 5.445 C 211.145 5.34 210.75 5.18 210.5 5.078 C 210.25 4.98 209.852 4.82 209.598 4.727 C 209.348 4.629 208.938 4.477 208.684 4.387 C 208.43 4.293 208.016 4.145 207.758 4.055 C 207.496 3.965 207.078 3.824 206.816 3.738 C 206.555 3.652 206.133 3.516 205.863 3.434 C 205.598 3.352 205.168 3.223 204.898 3.141 C 204.629 3.063 204.191 2.938 203.918 2.863 C 203.645 2.789 203.203 2.668 202.926 2.598 C 202.648 2.523 202.199 2.41 201.918 2.344 C 201.633 2.273 201.18 2.168 200.891 2.105 C 200.605 2.039 200.145 1.938 199.855 1.879 C 199.563 1.816 199.094 1.723 198.801 1.668 C 198.504 1.609 198.031 1.523 197.73 1.469 C 197.434 1.418 196.949 1.336 196.648 1.285 C 196.344 1.238 195.855 1.164 195.547 1.121 C 195.238 1.074 194.742 1.008 194.43 .969 C 194.117 .93 193.613 .867 193.297 .832 C 192.98 .797 192.469 .746 192.148 .715 C 191.828 .684 191.309 .637 190.984 .613 C 190.66 .586 190.133 .547 189.805 .527 C 189.473 .508 188.941 .477 188.609 .461 C 188.273 .445 187.734 .426 187.398 .414 C 187.059 .402 186.512 .387 186.172 .383 C 185.828 .379 182.277 .375 182.277 .375 L 71.41 .375 C 71.41 .375 69.043 .379 68.699 .383 C 68.359 .391 67.813 .402 67.473 .414 C 67.137 .426 66.598 .445 66.262 .461 C 65.93 .48 65.395 .508 65.066 .527 C 64.738 .547 64.211 .586 63.887 .613 C 63.563 .637 63.043 .684 62.723 .715 C 62.402 .746 61.891 .797 61.574 .832 C 61.258 .867 60.754 .93 60.441 .969 C 60.129 1.008 59.633 1.074 59.324 1.121 C 59.016 1.164 58.527 1.238 58.223 1.285 C 57.922 1.336 57.438 1.418 57.141 1.469 C 56.84 1.523 56.363 1.609 56.07 1.668 C 55.777 1.723 55.305 1.816 55.016 1.879 C 54.727 1.938 54.266 2.039 53.977 2.105 C 53.691 2.168 53.238 2.273 52.953 2.344 C 52.672 2.41 52.223 2.523 51.945 2.598 C 51.668 2.668 51.227 2.789 50.953 2.863 C 50.68 2.938 50.242 3.063 49.973 3.141 C 49.703 3.223 49.273 3.352 49.004 3.434 C 48.738 3.516 48.316 3.652 48.055 3.738 C 47.793 3.824 47.371 3.965 47.113 4.055 C 46.855 4.145 46.441 4.293 46.188 4.387 C 45.93 4.477 45.523 4.629 45.273 4.727 C 45.02 4.824 44.617 4.98 44.371 5.078 C 44.121 5.18 43.723 5.34 43.48 5.445 C 43.234 5.547 42.84 5.715 42.598 5.82 C 42.355 5.926 41.969 6.102 41.727 6.211 C 41.488 6.32 41.105 6.496 40.871 6.609 C 40.633 6.723 40.254 6.906 40.02 7.023 C 39.785 7.141 39.41 7.328 39.18 7.449 C 38.945 7.57 38.574 7.762 38.344 7.887 C 38.117 8.008 37.75 8.207 37.523 8.336 C 37.293 8.461 36.93 8.668 36.707 8.797 C 36.48 8.93 36.121 9.141 35.898 9.273 C 35.676 9.406 35.316 9.625 35.098 9.762 C 34.875 9.898 34.52 10.125 34.301 10.266 C 34.082 10.406 33.73 10.637 33.512 10.781 C 33.293 10.926 32.945 11.16 32.73 11.309 C 32.512 11.457 32.168 11.699 31.953 11.855 C 31.738 12.008 31.395 12.254 31.18 12.414 C 30.969 12.57 30.625 12.824 30.414 12.988 C 30.203 13.148 29.863 13.41 29.652 13.574 C 29.441 13.742 29.105 14.012 28.895 14.18 C 28.688 14.352 28.352 14.629 28.145 14.801 C 27.934 14.977 27.602 15.262 27.395 15.441 C 27.188 15.621 26.855 15.91 26.648 16.094 C 26.445 16.281 26.117 16.578 25.91 16.77 C 25.707 16.957 25.379 17.266 25.176 17.461 C 24.973 17.652 24.645 17.969 24.441 18.168 C 24.242 18.367 23.918 18.691 23.715 18.895 C 23.516 19.102 23.191 19.434 22.992 19.645 C 22.793 19.852 22.473 20.191 22.273 20.41 C 22.074 20.625 21.754 20.973 21.559 21.195 C 21.359 21.418 21.043 21.773 20.848 22 C 20.652 22.227 20.336 22.598 20.141 22.828 C 19.945 23.063 19.637 23.438 19.441 23.676 C 19.246 23.914 18.938 24.305 18.746 24.547 C 18.555 24.793 18.246 25.188 18.059 25.438 C 17.867 25.688 17.563 26.094 17.375 26.352 C 17.184 26.609 16.883 27.023 16.695 27.285 C 16.508 27.551 16.211 27.977 16.027 28.246 C 15.84 28.512 15.547 28.949 15.363 29.223 C 15.18 29.5 14.887 29.945 14.707 30.227 C 14.527 30.508 14.238 30.965 14.059 31.25 C 13.883 31.539 13.598 32.004 13.422 32.301 C 13.246 32.594 12.965 33.07 12.793 33.371 C 12.617 33.668 12.344 34.156 12.172 34.465 C 12 34.77 11.73 35.266 11.563 35.578 C 11.395 35.891 11.129 36.398 10.965 36.719 C 10.801 37.035 10.539 37.555 10.379 37.879 C 10.215 38.203 9.961 38.73 9.805 39.063 C 9.645 39.395 9.395 39.93 9.242 40.266 C 9.086 40.605 8.844 41.152 8.691 41.496 C 8.543 41.84 8.305 42.395 8.156 42.742 C 8.012 43.094 7.781 43.656 7.637 44.012 C 7.496 44.367 7.27 44.941 7.133 45.301 C 6.996 45.664 6.777 46.246 6.645 46.613 C 6.512 46.98 6.301 47.57 6.172 47.945 C 6.043 48.316 5.84 48.914 5.719 49.293 C 5.594 49.668 5.398 50.277 5.281 50.66 C 5.16 51.043 4.977 51.66 4.859 52.047 C 4.746 52.434 4.57 53.059 4.461 53.449 C 4.352 53.84 4.184 54.473 4.082 54.867 C 3.977 55.266 3.816 55.902 3.719 56.305 C 3.625 56.703 3.473 57.348 3.379 57.754 C 3.289 58.16 3.148 58.809 3.063 59.219 C 2.977 59.625 2.844 60.285 2.766 60.695 C 2.688 61.105 2.563 61.77 2.488 62.188 C 2.418 62.602 2.305 63.27 2.238 63.688 C 2.172 64.105 2.07 64.777 2.008 65.199 C 1.949 65.621 1.855 66.297 1.801 66.723 C 1.746 67.145 1.668 67.824 1.617 68.25 C 1.57 68.676 1.5 69.363 1.461 69.789 C 1.418 70.219 1.359 70.902 1.324 71.332 C 1.289 71.762 1.242 72.453 1.215 72.883 C 1.184 73.313 1.148 74.004 1.125 74.438 C 1.105 74.867 1.078 75.563 1.066 75.996 C 1.051 76.426 1.035 77.121 1.027 77.555 C 1.023 77.988 1.016 79.113 1.016 79.113 L 68.418 79.113 L 69.945 79.113 C 69.953 79.113 69.961 79.113 69.969 79.113 C 69.977 79.113 69.996 79.113 70.008 79.113 C 70.02 79.113 70.043 79.109 70.059 79.109 C 70.074 79.109 70.105 79.105 70.125 79.105 C 70.145 79.102 70.18 79.098 70.203 79.098 C 70.227 79.098 70.27 79.094 70.297 79.086 C 70.328 79.086 70.375 79.078 70.406 79.074 C 70.438 79.074 70.492 79.063 70.527 79.059 C 70.563 79.055 70.625 79.043 70.664 79.039 C 70.703 79.031 70.766 79.023 70.809 79.012 C 70.852 79.004 70.922 78.992 70.969 78.984 C 71.016 78.977 71.09 78.957 71.141 78.949 C 71.191 78.938 71.27 78.922 71.324 78.91 C 71.375 78.898 71.461 78.879 71.516 78.867 C 71.57 78.852 71.66 78.828 71.719 78.813 C 71.777 78.801 71.871 78.773 71.934 78.758 C 71.992 78.738 72.09 78.711 72.152 78.695 C 72.215 78.672 72.316 78.645 72.383 78.625 C 72.449 78.605 72.555 78.57 72.621 78.547 C 72.688 78.523 72.797 78.488 72.863 78.465 C 72.934 78.441 73.043 78.402 73.113 78.375 C 73.188 78.352 73.301 78.309 73.371 78.281 C 73.445 78.254 73.559 78.207 73.633 78.18 C 73.707 78.148 73.824 78.102 73.898 78.07 C 73.973 78.039 74.09 77.988 74.164 77.957 C 74.238 77.922 74.359 77.867 74.438 77.836 C 74.512 77.801 74.633 77.742 74.707 77.707 C 74.785 77.672 74.906 77.613 74.984 77.574 C 75.059 77.535 75.18 77.477 75.258 77.438 C 75.332 77.398 75.453 77.332 75.531 77.293 C 75.605 77.25 75.727 77.184 75.805 77.145 C 75.879 77.102 76 77.031 76.074 76.988 C 76.148 76.945 76.27 76.875 76.344 76.832 C 76.414 76.789 76.535 76.715 76.605 76.672 C 76.68 76.625 76.797 76.551 76.867 76.504 C 76.941 76.461 77.055 76.383 77.125 76.336 C 77.195 76.289 77.309 76.215 77.379 76.168 C 77.445 76.117 77.559 76.043 77.625 75.996 C 77.691 75.945 77.801 75.867 77.863 75.82 C 77.93 75.773 78.035 75.695 78.098 75.645 C 78.16 75.598 78.262 75.52 78.324 75.469 C 78.387 75.422 78.484 75.344 78.543 75.293 C 78.602 75.246 78.695 75.168 78.754 75.121 C 78.813 75.074 78.902 74.996 78.957 74.949 C 79.012 74.902 79.098 74.824 79.148 74.777 C 79.203 74.73 79.285 74.656 79.336 74.609 C 79.383 74.563 79.461 74.492 79.508 74.445 C 79.555 74.402 79.629 74.328 79.676 74.285 C 79.719 74.242 79.789 74.172 79.832 74.129 C 79.871 74.086 79.938 74.02 79.977 73.98 C 80.016 73.938 80.074 73.875 80.125 73.145 C 80.195 72 80.289 71.262 80.355 70.805 C 80.422 70.348 80.539 69.617 80.617 69.164 C 80.699 68.707 80.836 67.98 80.93 67.531 C 81.02 67.078 81.18 66.355 81.285 65.906 C 81.391 65.461 81.57 64.742 81.688 64.301 C 81.805 63.855 82.008 63.145 82.137 62.707 C 82.27 62.266 82.488 61.563 82.633 61.129 C 82.773 60.695 83.016 60 83.172 59.57 C 83.328 59.141 83.586 58.453 83.758 58.031 C 83.926 57.605 84.203 56.93 84.387 56.512 C 84.566 56.094 84.863 55.43 85.059 55.02 C 85.25 54.605 85.566 53.953 85.77 53.547 C 85.977 53.145 86.313 52.5 86.527 52.102 C 86.742 51.707 87.098 51.074 87.324 50.684 C 87.551 50.297 87.926 49.676 88.164 49.297 C 88.402 48.914 88.793 48.309 89.043 47.938 C 89.289 47.563 89.699 46.973 89.957 46.609 C 90.215 46.242 90.641 45.668 90.91 45.313 C 91.18 44.957 91.621 44.398 91.902 44.051 C 92.184 43.707 92.641 43.16 92.93 42.824 C 93.219 42.492 93.691 41.961 93.988 41.637 C 94.289 41.313 94.777 40.801 95.086 40.484 C 95.395 40.172 95.895 39.676 96.211 39.371 C 96.531 39.07 97.047 38.594 97.371 38.301 C 97.695 38.008 98.227 37.551 98.563 37.27 C 98.895 36.988 99.438 36.547 99.777 36.281 C 100.121 36.012 100.676 35.59 101.023 35.332 C 101.375 35.078 101.941 34.676 102.297 34.43 C 102.656 34.188 103.23 33.805 103.594 33.574 C 103.961 33.344 104.547 32.98 104.918 32.762 C 105.289 32.543 105.887 32.203 106.262 31.996 C 106.641 31.793 107.246 31.473 107.629 31.281 C 108.012 31.09 108.629 30.789 109.016 30.613 C 109.402 30.434 110.027 30.156 110.418 29.992 C 110.813 29.824 111.445 29.574 111.84 29.422 C 112.238 29.27 112.879 29.039 113.277 28.898 C 113.68 28.762 114.324 28.555 114.73 28.43 C 115.137 28.309 115.785 28.121 116.195 28.012 C 116.602 27.902 117.258 27.738 117.672 27.645 C 118.082 27.547 118.742 27.406 119.156 27.328 C 119.57 27.246 120.234 27.129 120.648 27.063 C 121.066 26.996 121.734 26.902 122.152 26.852 C 122.566 26.801 123.238 26.73 123.656 26.695 C 124.074 26.656 124.746 26.609 125.168 26.59 C 125.586 26.566 126.258 26.543 126.68 26.535 C 127.098 26.527 127.773 26.527 128.191 26.535 C 128.613 26.543 129.285 26.566 129.703 26.59 C 130.121 26.609 130.797 26.656 131.215 26.695 C 131.633 26.73 132.301 26.801 132.719 26.852 C 133.137 26.902 133.805 26.996 134.219 27.063 C 134.637 27.129 135.301 27.246 135.715 27.328 C 136.129 27.406 136.789 27.547 137.199 27.645 C 137.609 27.738 138.27 27.902 138.676 28.012 C 139.086 28.121 139.734 28.305 140.141 28.43 C 140.543 28.555 141.191 28.762 141.594 28.898 C 141.992 29.039 142.633 29.27 143.027 29.422 C 143.426 29.574 144.059 29.828 144.449 29.992 C 144.844 30.156 145.469 30.434 145.855 30.613 C 146.242 30.789 146.859 31.09 147.242 31.281 C 147.625 31.473 148.23 31.793 148.609 31.996 C 148.984 32.203 149.582 32.543 149.953 32.762 C 150.324 32.98 150.91 33.344 151.273 33.574 C 151.637 33.805 152.215 34.188 152.574 34.43 C 152.93 34.676 153.496 35.078 153.844 35.332 C 154.195 35.59 154.75 36.012 155.09 36.281 C 155.434 36.547 155.977 36.988 156.309 37.27 C 156.645 37.551 157.172 38.008 157.5 38.301 C 157.824 38.594 158.34 39.07 158.66 39.371 C 158.977 39.676 159.477 40.172 159.785 40.484 C 160.094 40.801 160.582 41.313 160.879 41.637 C 161.18 41.961 161.652 42.492 161.941 42.824 C 162.23 43.16 162.688 43.707 162.969 44.051 C 163.25 44.398 163.688 44.957 163.961 45.313 C 164.23 45.668 164.652 46.242 164.914 46.609 C 165.172 46.973 165.582 47.563 165.828 47.938 C 166.078 48.309 166.469 48.914 166.707 49.297 C 166.945 49.676 167.316 50.297 167.543 50.684 C 167.773 51.074 168.125 51.707 168.344 52.102 C 168.559 52.5 168.895 53.145 169.098 53.547 C 169.305 53.953 169.621 54.605 169.813 55.02 C 170.004 55.43 170.305 56.094 170.484 56.512 C 170.664 56.93 170.945 57.605 171.113 58.031 C 171.281 58.453 171.543 59.141 171.699 59.57 C 171.855 60 172.094 60.695 172.238 61.129 C 172.383 61.563 172.602 62.266 172.734 62.707 C 172.863 63.145 173.066 63.855 173.184 64.301 C 173.301 64.742 173.48 65.461 173.586 65.906 C 173.691 66.355 173.852 67.078 173.941 67.531 C 174.035 67.98 174.172 68.707 174.254 69.164 C 174.332 69.617 174.449 70.348 174.516 70.805 C 174.582 71.262 174.676 72 174.742 73.145 C 174.793 73.875 174.855 73.938 174.895 73.98 C 174.934 74.02 174.996 74.09 175.039 74.129 C 175.082 74.172 175.152 74.242 175.195 74.285 C 175.238 74.332 175.313 74.402 175.359 74.445 C 175.406 74.492 175.484 74.566 175.535 74.609 C 175.586 74.656 175.668 74.73 175.719 74.777 C 175.773 74.824 175.859 74.902 175.914 74.949 C 175.969 74.996 176.059 75.074 176.117 75.121 C 176.172 75.168 176.266 75.246 176.328 75.297 C 176.387 75.344 176.484 75.422 176.547 75.469 C 176.605 75.52 176.707 75.598 176.773 75.645 C 176.836 75.695 176.941 75.773 177.004 75.82 C 177.07 75.867 177.176 75.945 177.246 75.996 C 177.313 76.043 177.422 76.117 177.492 76.168 C 177.563 76.215 177.672 76.289 177.742 76.336 C 177.813 76.383 177.93 76.461 178 76.504 C 178.074 76.551 178.188 76.625 178.262 76.672 C 178.336 76.715 178.453 76.789 178.527 76.832 C 178.602 76.875 178.723 76.945 178.797 76.988 C 178.871 77.031 178.992 77.102 179.066 77.145 C 179.141 77.184 179.262 77.25 179.34 77.293 C 179.414 77.332 179.535 77.398 179.613 77.438 C 179.688 77.477 179.813 77.535 179.887 77.574 C 179.965 77.613 180.086 77.672 180.16 77.707 C 180.238 77.742 180.359 77.801 180.434 77.836 C 180.508 77.867 180.629 77.922 180.703 77.957 C 180.781 77.988 180.898 78.039 180.973 78.07 C 181.047 78.102 181.164 78.148 181.238 78.18 C 181.309 78.207 181.426 78.254 181.496 78.281 C 181.57 78.309 181.684 78.352 181.754 78.375 C 181.824 78.402 181.938 78.441 182.004 78.465 C 182.074 78.488 182.184 78.527 182.25 78.547 C 182.316 78.57 182.422 78.605 182.488 78.625 C 182.551 78.645 182.652 78.676 182.715 78.691 C 182.781 78.711 182.879 78.738 182.938 78.754 C 182.996 78.773 183.094 78.797 183.152 78.813 C 183.207 78.828 183.297 78.852 183.355 78.863 C 183.41 78.879 183.496 78.898 183.547 78.91 C 183.598 78.922 183.68 78.938 183.73 78.949 C 183.777 78.961 183.855 78.973 183.898 78.984 C 183.945 78.992 184.02 79.008 184.059 79.012 C 184.102 79.02 184.168 79.031 184.207 79.039 C 184.246 79.043 184.305 79.051 184.34 79.059 C 184.375 79.063 184.43 79.07 184.465 79.074 C 184.496 79.078 184.543 79.082 184.57 79.086 C 184.602 79.09 184.645 79.094 184.664 79.098 C 184.691 79.102 184.727 79.102 184.746 79.102 C 184.766 79.105 184.793 79.105 184.813 79.109 C 184.828 79.109 184.852 79.109 184.863 79.113 C 184.875 79.113 184.891 79.113 184.898 79.113 C 184.91 79.113 184.918 79.113 184.922 79.113 C 184.926 79.113 184.93 79.113 184.93 79.113 L 253.855 79.113 "/>
<text xml:space="preserve" transform="matrix(1 0 0 1 0 0)" font-size="11.99999" font-family="CMUSerif"><tspan y="16.050253" x="92.83865 98.15465 101.466648 104.77864 108.09064 114.73863 119.38263 122.694629 128.01062 134.01062 137.32262 141.30661 146.02262 152.02262 155.67061">elliptical sofa</tspan><tspan y="109.71153" x="93.2166 102.612598 107.92859 112.60858 118.58458 123.90057 128.58057 131.90457 136.62058 140.60457 145.32057 151.32057 154.96857">Gerver's sofa</tspan></text>
</g>
</g>
</svg>
